<svg id="Ebene_1" data-name="Ebene 1" xmlns="http://www.w3.org/2000/svg" xmlns:xlink="http://www.w3.org/1999/xlink" viewBox="0 0 6637.133 2214.872"><defs><style>.cls-1{fill:none;}.cls-2{fill:#f56740;}.cls-10,.cls-11,.cls-12,.cls-14,.cls-2,.cls-3,.cls-6,.cls-9{fill-rule:evenodd;}.cls-3{fill:#fff;}.cls-4{clip-path:url(#clip-path);}.cls-5{clip-path:url(#clip-path-2);}.cls-6{fill:#6e97b6;}.cls-7{clip-path:url(#clip-path-3);}.cls-8{clip-path:url(#clip-path-4);}.cls-9{fill:#04584f;}.cls-11{fill:#ff7650;}.cls-12{fill:#e95d37;}.cls-13{clip-path:url(#clip-path-5);}.cls-14{fill:#f5be51;}.cls-15{clip-path:url(#clip-path-6);}.cls-16{fill:#021923;}.cls-17{fill:#edc10c;}.cls-18{clip-path:url(#clip-path-7);}.cls-19{fill:#093449;}.cls-20{clip-path:url(#clip-path-8);}.cls-21{fill:#004144;}.cls-21,.cls-22,.cls-23{stroke:#fff;stroke-miterlimit:10;stroke-width:5px;}.cls-22{fill:#0c5259;}.cls-23{fill:#037682;}</style><clipPath id="clip-path"><rect class="cls-1" x="5098.921" y="1728.157" width="144" height="397.563"/></clipPath><clipPath id="clip-path-2"><rect class="cls-1" x="5718.921" y="1728.157" width="144" height="397.563"/></clipPath><clipPath id="clip-path-3"><rect class="cls-1" x="4886.921" y="1728.157" width="144" height="397.563"/></clipPath><clipPath id="clip-path-4"><rect class="cls-1" x="5929.588" y="1728.157" width="144" height="397.563"/></clipPath><clipPath id="clip-path-5"><rect class="cls-1" x="6166.921" y="505.6" width="118.667" height="155.891"/></clipPath><clipPath id="clip-path-6"><rect class="cls-1" x="4612.254" y="505.6" width="118.667" height="154.557"/></clipPath><clipPath id="clip-path-7"><rect class="cls-1" x="4780.254" y="754.824" width="56" height="299.344"/></clipPath><clipPath id="clip-path-8"><rect class="cls-1" x="4533.588" y="505.6" width="950.667" height="338.557"/></clipPath></defs><path class="cls-2" d="M6592.5,1586.433c-7.6-6.75-19.7-7.953-29.338-2.145-9.62,5.8-14.209,17.062-11.8,26.932-8.766,5.146-13.646,16.276-11.1,27.229s11.833,18.792,21.984,19.542c2.177,9.927,11.255,18.01,22.464,18.974s21.536-5.453,25.375-14.86c10.119.99,20.614-5.14,25-15.5s1.479-22.156-6.282-28.724c4.058-9.312,1.48-21.187-7.026-28.552s-20.63-8.245-29.276-2.9"/><path class="cls-3" d="M6578.265,1609.564a18.438,18.438,0,1,0,25.312,6.276A18.447,18.447,0,0,0,6578.265,1609.564Zm2.3,3.833a13.964,13.964,0,1,1-4.745,19.167,13.989,13.989,0,0,1,4.745-19.167"/><path class="cls-2" d="M5493.348,1734.058c7.6-6.755,19.7-7.958,29.334-2.151s14.224,17.058,11.8,26.933c8.771,5.14,13.656,16.276,11.109,27.229s-11.833,18.786-21.979,19.536c-2.177,9.933-11.261,18.016-22.469,18.979s-21.536-5.453-25.385-14.859c-10.12,1-20.615-5.141-25-15.5-4.37-10.354-1.459-22.156,6.3-28.719-4.063-9.317-1.48-21.192,7.026-28.557s20.625-8.245,29.265-2.891"/><path class="cls-3" d="M5507.588,1757.189a18.433,18.433,0,1,0,6.271,25.3A18.446,18.446,0,0,0,5507.588,1757.189Zm-2.307,3.823a13.963,13.963,0,1,1-19.172,4.755,13.974,13.974,0,0,1,19.172-4.755"/><path class="cls-2" d="M4305.6,1586.433c7.6-6.744,19.7-7.953,29.339-2.145s14.219,17.062,11.8,26.932c8.771,5.14,13.656,16.271,11.109,27.229s-11.838,18.786-21.979,19.542c-2.182,9.922-11.26,18.01-22.469,18.968s-21.536-5.447-25.385-14.854c-10.115.99-20.615-5.14-24.995-15.5s-1.469-22.161,6.292-28.729c-4.068-9.312-1.474-21.192,7.021-28.557s20.63-8.24,29.27-2.891"/><path class="cls-3" d="M4319.843,1609.574a18.435,18.435,0,1,0,6.271,25.3A18.447,18.447,0,0,0,4319.843,1609.574Zm-2.312,3.828a13.961,13.961,0,1,1-19.172,4.75,13.964,13.964,0,0,1,19.172-4.75"/><g class="cls-4"><path class="cls-2" d="M5161.853,1728.183H5099.51v397.375h142.651s-3.823-24.64-23.2-33.057a279.206,279.206,0,0,0-57.1-17.562V1728.183"/></g><g class="cls-5"><path class="cls-6" d="M5799.473,1728.189h62.339v397.369H5719.161s3.823-24.64,23.208-33.052a279.3,279.3,0,0,1,57.1-17.567v-346.75"/></g><g class="cls-7"><path class="cls-2" d="M4950.379,1728.189h-62.338v397.369h142.646s-3.823-24.64-23.2-33.057a279.108,279.108,0,0,0-57.105-17.562v-346.75"/></g><g class="cls-8"><path class="cls-6" d="M6010.937,1728.189h62.349v397.369H5930.635s3.817-24.64,23.208-33.052a279.32,279.32,0,0,1,57.094-17.567v-346.75"/></g><path class="cls-2" d="M4906.744,968.449c96.292-245.083,357.693-285,505.594-192.4s182.307,317.729,86.005,562.807c-58.542,162.933-231.286,343.308-394.781,481.495a125.968,125.968,0,0,1-130.224,19.885c-197.307-83.088-416.042-203.677-520.584-341.708-165.1-205.167-199.5-430.286-86.005-562.8,113.495-132.531,374.9-172.448,539.995,32.724"/><path class="cls-6" d="M6000.348,701.34c-317.114,0-574.588,257.375-574.588,574.385s257.474,574.4,574.588,574.4,574.594-257.38,574.594-574.4S6317.473,701.34,6000.348,701.34"/><path class="cls-9" d="M6232.124,1801.4c-.015-1.318-.1-2.625-.239-3.922-5.792-7.1-16.834-12.6-19.3-21.87-1.157-4.369,2.755-6.572,6.02-8.791l-17.963-43.078c-3.37-1.308-7.156-1.979-9.912-4.417-4.348-3.859-4.2-11.083-9.1-14.2-7.662-4.875-21.271,1.2-27.407-6.875-4.109-5.385,4.058-14.109,6.558-18.557.885-1.573,2.479-4.412,1.322-6.229-1.562-2.443-6.453-1.839-8.833-1.792-7.109.146-15.838,1.51-22.062-2.911-5.719-4.068-4.516-12.152-7.886-17.688-3.505-5.781-9.958-9.042-14.156-14.26-4.432-5.537-5.88-12.7-9.714-18.605a52.326,52.326,0,0,0-23.333-19.77c-9.219-3.99-19.646-6.006-27.224-13.011-9.328-8.63-12.036-21.724-12.922-33.875-.479-6.807-.359-13.885,3.308-19.818a45.21,45.21,0,0,0-4.047-7.64c-5.641-8.49-13.657-15.1-20.125-22.938-4.063-4.942-7.959-10.755-6.469-17.468,2.828-12.709,21.646-13.563,31.365-17.875,6.947-3.079,13.447-6.891,20.619-9.485,7.766-2.8,15.766-4.406,23.709-6.536,4.619-1.235,9.177-3.328,13.869-4.156,4.334-.761,8.532,1.125,12.834,1.005.979-4.8.255-9.8,1.172-14.755.979-5.172,3.9-9.318,7.474-13.063,6.666-6.979,14.338-11.057,23.677-13.339,6.317-1.541,13.823-1.7,19.692-4.635,9.761-4.885,14.214-16.745,23.1-22.969,8.6-6.015,19.088-3.781,28.838-5.375,11.865-1.948,24.276-10.312,36.594-9.562,3.687-6.776,14.234-9.485,21.213-8.87,4.136.365,8.063,2.354,12.271,1.724,4.125-.609,7.719-3.927,9.933-7.266,4.286-6.463,3.895-14.437,3.338-21.833-.286-4.078-1.625-9.771,1.005-13.4,3.7-5.1,12.985-4.7,18.49-5.927,3.292-.724,6.39-2,7.37-5.547,2.031-7.442-2.016-16.76-4.2-23.771-.63-2.031-2.677-7.078.317-8.333,5.084-2.12,13.553,3.2,17.542,5.662,11.188,6.927,25.177,19.8,39.469,13.2,6.333-2.921,8.318-8.984,9.729-15.411-.328-2.458-.7-4.839-.932-6.99-1.276-12.213,1.463-25.244-1.834-37.161-1.411-5.1-4.182-10.766-9.114-13.292-10.38-5.291-23.932,1.693-35.11-.6-5.156-1.062-9.041-4.5-13.687-6.692-7.042-3.318-16.7-4.287-23.875-.782-11.958,5.86-9.9,20.912-16.682,30.542-2.766,3.922-9.188,9.234-14.485,8.318-4.979-.865-2.437-9.266-1.76-12.214,2.922-12.786,9.265-26.094.286-37.812-7.729-10.089-20.187-15.407-26.442-26.9-5.459-10.037-3.193-22.7-10.938-31.667-5.187-6-13.1-6.5-19.391-10.677-2.979-.693-5.848-1.713-7.807-3.776-5.323-5.62,1.49-15.141-5.276-20.281a13.538,13.538,0,0,0-3.911-2.016c-4.292-1.458-9.808-1.88-13.479,1.276-1.115.948-3.761,7.49-5.011,7.386-1.937-.167-5.114-4.631-6.844-5.688-4.645-2.792-9.942-3.515-15.177-4.51-6.156-1.157-19.692-2.209-19.453-11.276.063-2.318,2.078-2.875,3.99-2.256,4.948,1.61,9.114,4.678,14.6,4.24,4.427-.344,8.141-3.156,12.333-4.359,7.933-2.3,16.537-2.318,23.933-6.256,3.869-2.046,10.307-7.02,7.869-12.213-3.067-6.51-15.192-5.188-20.729-5.2-8.5-.026-17.344.422-25.568-2.1-8.052-2.464-15.3-7.386-23.182-10.407-5.385-2.073-19.286-4.479-19.781-11.984-.333-5.156,3.88-9.068,7.219-12.344,8.453-8.239,18.984-13.823,27.573-21.9,6.437-6.057,10.468-13.817,14.713-21.442,1.771-3.2,4.089-8.479,8.136-9.354,2.812-.615,5.385,1.88,7.416,3.442,5.464,4.229,11.4,9.537,18.141,4.318,6.708-5.2,5.594-13.516,9.974-19.953,2.495-3.688,6.5-5.865,10.4-7.792a126.253,126.253,0,0,1,25.75-9.307c4.8-1.156,10.5-2.526,15.437-1.354,3.245.765,4.266,3.036,4.422,6.135.391,7.849.646,16.031.661,23.9.011,6.057-2.38,11.187-5.312,16.359-2.208,3.881-5.537,8.875-4.8,13.594,1.339,8.469,14.755,9.037,15.073,17.761.271,7.156-4.682,14.072-5.344,21.244-.208,2.349-.448,5.808,1.464,7.625,5.036,4.813,13.927-6.463,15.958-9.927,3.323-5.708,3.339-12.76,6.766-18.354,2.666-7.521,15.646-11,21.859-12.724,20.005-5.578,48.406-5.833,57.13-28.318,6.078-15.651-.765-31.593-13.583-41.588-6.906-5.4-15.672-8.422-21.87-14.74-2.755-2.781-4.125-7.172-3.041-10.583a28.463,28.463,0,0,0-7.594,8.12c-2.229,3.515-3.792,8.3-6.948,11.109-4.11,3.656-12.667,4.438-17.781,5.412-4.11.786-11.058,2.062-14.474-1.276-2.99-2.948,1.9-6.7,4.166-7.938,9.75-5.281,19.542-10.286,27.907-17.729,1.385-1.219,3.083-2.646,3.791-4.406,1.021-2.511.3-5.011,1.745-7.61,3.005-5.427,6.135-12.078,10.276-16.708,2.479-2.8,5.818-4.87,8.766-7.125,5.343-4.1,8.922-6.646,15.916-6.469a63.177,63.177,0,0,1,12.651,1.974c.948.224,3.683.552,3.922,1.859.167.964-1.14,1.7-1.755,2.157-1.672,1.213-4.588,2.9-5.266,5-.484,1.49,1.9,2.693,2.8,3.4,3.308,2.573,6.334,6.364,10.261,7.984,4.875,1.985,8.093-1.172,12.6-1.094,1.323.016,2.573,1.052,3.823,1.443a21.924,21.924,0,0,0,6.557.813c7.609-.047,15.734-3.1,23.271-1.672a32.771,32.771,0,0,1,9.687,3.7,572.993,572.993,0,0,1,128.131,240.219c-.511,1.786-1.037,3.458-1.537,5a81.955,81.955,0,0,1-18.094,30.552c-4.994,5.318-11.25,9.344-15.963,14.927-3.7,4.4-4.719,10.135-7.7,14.964-5.7,9.213-12.714,17.437-18.083,26.895-6.1,10.74-12.11,21.578-20.459,30.792-1.817,2-5.547,6.917-8.724,6.813-1.953-.068.256-3.9.573-4.464,2.318-4.25,5.162-8.229,7.865-12.229,8.333-12.3,17.661-24.495,24.265-37.865,1.433-2.9,3.058-6.37,2.844-9.708-.12-1.609-.932-3.636-2.859-3.37-2.75.375-4.375,4.667-5.641,6.662a118.017,118.017,0,0,1-11.942,15.119c-13.943,15.5-27.8,31.177-42.152,46.313-.989,1.042-2.041,2.161-3.156,3.3.453.5.886.99,1.292,1.484,4.182,4.943,8.667,11.209,3.1,16.943-9.641,9.948-28.761,11.859-41.62,14.083-25.135,4.344-50.437,8.214-71.229,24.271-9.13,7.052-15.162,17.125-24.458,24.042-6.646,4.948-14.2,8.38-21.433,12.328-5.208,2.839-10.364,5.76-15.495,8.719,9.49,7.614,17.193,20.682,20.141,30.328,2.255,7.417,2.031,15.39,4.646,22.713,4.411,12.323,19.365,19.3,20.943,32.709,1.067,9.026-4.3,17.041-6.683,25.4-1.609,5.677-2,11.609-3.744,17.255-2.151,6.927-6.183,13.229-9.714,19.51-4.047,7.224-7.24,14.677-13.437,20.412-10.391,9.64-24.579,13.755-35.995,22.047,0,.323.015.64.015.958.438,17.755.407,35.656,2.605,53.307,3.671,29.526,16.875,57,20.468,86.313,1.808,14.818-5.968,28.177-4.343,42.635,1.593,14.209,5.729,27.558,5.671,41.625Q6249.982,1793.512,6232.124,1801.4ZM5591.51,872.277c10.63-8.135,22.239-16.026,34.708-20.687,4.63-1.73,11.99-4.12,15.87.51a10.39,10.39,0,0,1,1.474,2.359l30.3-37.052c12.6,2.391,25.854,6.766,35.859,15.115,8.109,6.781,12.995,16.552,19,25.052a125.7,125.7,0,0,0,25.073,26c6.318,4.964,13.615,9.563,18.323,16.224,6.271,8.87,6.406,24.885-1.729,32.854-8.979,8.787-21.36-5.094-31.276-.677-2.073.938-3.25,3.1-4.407,4.917-2.885,4.557-7.6,11.01-7.354,16.651.12,3,1.563,5.713,2.87,8.359.4.781,1.37,2.271.724,3.172-.859,1.219-3.818,1.474-5.13,1.729a34.255,34.255,0,0,1-4.438.6,22.673,22.673,0,0,1-6.635-.5c-11.162-2.63-12.875-15.849-18.484-24.041-3.808-5.563-11.49-11.4-11.855-18.62-.406-8.287,8.094-14.511,5.688-23.2-1.865-6.719-9.073-11.755-13.583-16.7a83.09,83.09,0,0,1-7.521-9.355c-1.865-2.734-3.433-6.421-6.016-8.567-4.125-3.464-11.51-4.922-18.068-5.026.256,4.333.058,8.875,2.287,12.468,2.8,4.48,7.927,7.157,11.791,10.6a23.633,23.633,0,0,1,8.349,18.646,14.411,14.411,0,0,1-2.718,8.964c-4.006,4.989-10.849,5.625-16.792,5.594-7.219-.032-14.4-1.323-21.568-1.974-5.479-.5-10.755-.886-16.005-1.756,2.677,2.99,5.307,5.834,8.167,7.323,7.807,4.063,17.823,1.506,25.286,5.985,6.375,3.833,4.453,12.151,8.469,17.369,1.682,2.193,5.005,2.422,7.458,3.2a18.985,18.985,0,0,1,9.584,6.135c3.354,4.344,3.323,10.089,2.828,15.333a33.778,33.778,0,0,0,5.146,2.183c6.6,2.119,13.76,2.869,20.578,4.015,8.406,1.427,17.265,3.188,25.828,2.1,11.958-1.531,12.557-10.177,14.469-20.119.661-3.381,2.541-11.037,7.354-10.542,10.052,1.026,6.26,17.219,4.8,22.964-.375,1.505-2.469,6.463-.6,7.651,2.119,1.354,6.047.843,8.437,1.083,4.031.422,8.005,1.281,11.432,3.521,12.8,8.359,19.485,23.2,33.907,29.666,6.229,2.8,12.937,4.032,19.495,5.776,3.338.886,8.2,1.792,10.546,4.646,3.177,3.88-5.026,8.86-7.281,10.828-6.724,5.9-12.818,15.594-6.724,24.24,6.74,9.547,22.912,7.609,32.9,7.036,4.156-.239,12.786-2.026,15.766,2.151,2.692,3.792,1.942,11.61,2.015,15.985.11,6.8-.495,14.182-3.37,20.422-5.744,12.448-21.39,14.823-33.619,13.849a34.131,34.131,0,0,1-6.407-1.084c-11.718-3.276-11.1-14.963-16.937-23.7-5.729-8.63-14.953-16.875-22.776-23.7-5.292-4.636-12.422-3.761-18.8-5.49-4.573-1.234-8.646-3.807-13.255-4.932-4.042-.995-8.136-1.641-12.224-2.391.01.313.026.646.026.964.2,10.854-6.6,18.781-15.37,24.161-5.776,3.552-14,6.813-16.818,13.521-3.338,8.015,8.495,10.51,13.328,13.354,5.818,3.427,1.771,6.7-3.192,7.8a24.192,24.192,0,0,1-5.521.511,41.008,41.008,0,0,1-12.349-2.105,45.829,45.829,0,0,1-7.594-3.338,24.778,24.778,0,0,1-4.859-3.365c-11.266-10.276,5.552-22.62,12.922-29.083,2.208-1.943,3.14-2.755,5.338-4.74,2.24-2.031,3.1-2.828,5.266-4.948a85.942,85.942,0,0,0,6.875-7.364c3.2-3.959,5.265-8.016,5.234-11.9l-2.5-1.276c-7.562,10.927-21.6,15.333-31.208,24.3-6.063,5.672-8.922,13.76-13.344,20.6-2.6,4.031-5.766,7.989-10.786,8.692a11.448,11.448,0,0,1-3.506-.041c-7.354-1.266-2.375-6.261-4.5-11.011-1.625-3.651-6.3-5.052-9.927-5.489-5.37-.646-10.6.286-15.75,1.75a4.818,4.818,0,0,1,.3.463c1.459,2.464,1.537,5.412,1.37,8.177-.51,8.454-4.333,15.594-12.307,19.146-11.188,4.959-22.552,2.3-33.87-.3-4.932-1.125-11.427-2.182-15.151,2.2-3.271,3.849-2.75,9.8-1.432,14.3,2.781,9.505,10.109,17.292,16.2,24.812,1.765,2.183,3.651,4.339,5.25,6.662,7.854-3.625,20.443-.87,28.187-1.635,15.693-1.553,30.266-8.709,45.792-10.125,11.193-1.021,21.875,2.651,33.2.484,11.911-2.287,21.75-8.333,30.01-17.083,5.865-6.193,10.167-17.141,19.558-18.391,17.687-2.365,37.677,2.255,55.307,3.792,14.213,1.244,32.12.7,44.484,9.031,11.49,7.734,11.506,23.3,18.651,34.161,8.438,12.834,22.985,20.334,31.407,33.459,8.156,12.713,7.671,28.906,8.484,43.458.589,10.6,1.958,21.245,1.13,31.875a66.2,66.2,0,0,1-6.2,23.547c-30.026,62.771-112.474,2.693-155.041,42.385-6.349,5.922-3.235,14.964-2.5,22.391a56.138,56.138,0,0,1-2.089,22.021c-5.234,17.349-19.193,31.484-21.073,49.984-1.854,18.271,7.943,34.208,8.36,52.005.333,13.745-6.9,27.136-11.9,39.568-11.177,27.818-18.49,56.536-42.448,76.568-7.193,6.026-16.808,13.437-26.735,13.359-9.505-.073-17.807-7.7-24.276-13.833-11.3-10.729-18.807-24.11-28.682-35.979-7.609-9.141-18.552-17.667-21.552-29.688-3.448-13.833,3.906-29.682-2.281-42.9-7.3-15.578-34.813-10.818-37.2-30.6-3.11-25.682,20.078-45.807,4.833-71.63-15.51-26.261-42.583-43.756-58.24-69.761-1.817-3.015-12.276-21.166-9.666-24.489,1.661-2.12,12.406,2.536,14.416,2.984a120.5,120.5,0,0,0,29.86,2.542c1.047-1.677,2.073-3.308,2.968-4.87,6.1-10.615,13.855-18.375,22.844-25.677l12.3-28.667a265.923,265.923,0,0,0,23.354-48.729c1.818-5.161,3.48-13.37,6.464-19.927-5.917,2.979-11.151,8.854-14.531,13.052-16.677,20.724-29.979,42.219-38.1,67.568-.73,2.265-1.292,3.9-2.146,6.12-2.943,7.651-9.25,24.781-20.063,23.567-13.724-1.541-24.031-13.666-35.323-20.3-15.88-9.323-36.979-5.151-48.672-22.244-.265-.386-.515-.776-.755-1.167q1.758-27.141,5.99-53.526c3.375-9.61,7-19.136,10.562-28.667,5.438-14.573,10.438-29.427,21.12-41,1.235-3.7,2.375-7.411,3.292-11.182,4.364-17.943,5.828-36.453,11.4-54.125,10.422-33.036,28.281-63.844,47.979-92.161a393.364,393.364,0,0,1,28.489-36.224c5.417-6.12,11.026-12.047,16.891-17.745,2.281-2.208,4.609-4.406,6.948-6.552,1.87-1.729,3.776-3.464,5.7-5.13a66.6,66.6,0,0,1,7.01-5.547l-4.067-10.677C5589.359,874.475,5590.437,873.376,5591.51,872.277Zm-108.261,579.5c1.407-1.979,4.922.938,6.11,1.834,5.494,4.14,9.2,10.156,14.9,14.114,3.88,2.7,10.609,3.834,13.359,7.844,1.969,2.87,1.906,7.12,2.172,10.438.625,7.937.453,15.895,1.516,23.8.817,6.042,4.588,15.438,1.442,21.224-1.885,3.469-6.349,4.631-10.015,4.688-15.75.26-18.485-15.375-20.922-27.724-1.969-9.964-4.2-19.776-6.709-29.615Zm774.526-162.489a18.193,18.193,0,0,1,4.646,5.536c.542.985,1.1,2.474-.213,3.1-2.782,1.334-7.339.162-10.3.1-1.959-.036-6.3.922-7.506-1.166Zm-32.687.635c3.969-.969,9.609.438,13.474,1.339.515.125,5.385,1.2,3.88,2.708-1.1,1.109-2.99,1.313-4.464,1.51-4.26.568-8.546.084-12.8-.151-11.041-.6-21.739,3.037-32.807,2.954-2.932-.021-6.391.208-9.25-.615-2.062-.589-2.812-2.333-1.234-3.958,1.745-1.8,4.495-2.578,6.812-3.308,10.063-3.161,20.068-7.51,30.808-6.724Zm17.687-14.693c-1.14.964-5.323,3.964-3.64,5.756.843.9,2.677.734,3.76.64,3.714-.317,7.193-1.9,10.547-3.411,8.917-4.031,17.792-7.641,27.589-8.932,4.3-.563,8.645-.735,12.963-.985a22.926,22.926,0,0,0,6.787-.932c1.38-.521,1.26-1.734.479-2.761a10.48,10.48,0,0,0-4.495-3.14c-4.651-1.813-9.6-.589-14.234.578-4.448,1.125-8.933,2.224-13.37,3.469Zm-590.218-170.072c2.078-.662,5.625,1.067,7.505,1.755a36.514,36.514,0,0,1,4.62,1.974,20.518,20.518,0,0,1,2.645,1.745,8.1,8.1,0,0,1,1.157.932c3.552,3.521-3.459,4.51-5.443,4.687-.589.047-1.156.094-1.745.125-2.812.177-5.609.177-8.406.136-3.854-.078-8.109.328-9.24-4.255a6.753,6.753,0,0,1-.151-1.912Zm103.52-32.5c1.25,1.484-.151,3.666-.812,5.083-1.547,3.333-2.844,6.8-4.12,10.24a88.961,88.961,0,0,0-3.026,11.593c-.328,1.516-.75,3.651-2.224,4.526-4.765,2.87-8.172-6.979-8.453-9.848-.812-8.256,3.474-17.568,9.672-22.98Zm356.146-18.287c.974-3.864,5.308-5.593,8.365-2.692,3.14,2.979,4.1,8.031,5.745,11.88a22.714,22.714,0,0,0,2.979,5.276c2.12,2.677,5.083,4.3,7.594,6.542,1.145,1.026,2.468,2.572,1.145,4-1.187,1.265-3.265,1.744-4.875,2-5.01.812-9.7-1.23-14.666-.974-5.235.286-8.933,4.1-13.313,6.447-2.479,1.323-5.76,2.256-7.974-.041-4.166-4.365-2.135-11.985-.838-17.057.948-3.724,1.817-7.2,6.015-7.969Zm-509.4-14.078c2.38.229,4.761.4,7.136.62,6.557,5.505,10.26,13.26,13.369,21.1,1.625,4.073,3.506,8.6,2.667,13.083a15.424,15.424,0,0,1-2.531,5.709,93.825,93.825,0,0,0-12.875-.631c-10.86-.208-21.74.105-32.6.2-10.927.073-21.349.073-32.021,2.735-5.354,1.323-11.031,3.578-16.6,3.672-5.057.072-6.776-4.079-4.969-8.375,5.307-12.573,21.86-13.61,31.8-20.813.792-.573,1.635-1.187,2.49-1.838,5.244.109,10.552.6,15.7-.027,9.026-1.13,18.421-4.468,25.182-10.755A11.8,11.8,0,0,0,5602.822,1040.3Zm566.953,37.656a9.781,9.781,0,0,1-.541-3.291,9.186,9.186,0,0,1,.661-4.224c.854-1.6,3.141-2.3,4.8-2.453,3.76-.318,7.719.708,11.417,1.276,2.286.364,4.588.646,6.859,1.067.8.167,1.958.36,2.422,1.157.437.755-.255,1.536-.766,2.047a16.313,16.313,0,0,1-5.578,3.4,45.008,45.008,0,0,1-6.245,1.64c-3.609.808-7.026,2.073-10.588,3.021Zm-596.8-46.869a20.448,20.448,0,0,1,2.224.645c5.141,1.849,9.693,4.917,14.974,6.448.24.079.469.141.709.2-4.808,3.818-9.433,9.849-15.735,10.422a29.7,29.7,0,0,1-9.349-1,9.349,9.349,0,0,0,.8-3.729c.005-2.719-3.25-7.411-2.828-10.416Zm254.339-54.438c-1.005-.224-.708-1.818-.568-2.5a17.417,17.417,0,0,1,4.433-7.88c5.645-6.448,13.765-13,11-22.677a16.553,16.553,0,0,0-1.943-4.255,11.224,11.224,0,0,0-4.828-4.526c-4.287-1.776-6.526,2.271-7.745,5.776-2.661,7.7-2.875,16.015-6.771,23.307-4.151,7.761-11.687,12.844-17.51,19.25-2.677,2.932-6.016,6.615-6.183,10.823-.177,4.646,4.032,8.151,7.6,10.375,8.709,5.432,17.448,5.458,27.1,3.068,3.145-.781,8.484-1.354,10.619-4.1,1.99-2.573.589-6.584-.583-9.172-2.891-6.422-7.943-11.219-9.406-18.313Zm18.594-6.042c-.328,5.141-.136,12.178,3.114,16.417a16.154,16.154,0,0,0,5.219,3.927c3.083,1.714,6.229,3.308,9.417,4.813,2.724,1.26,5.521,2.765,8.469,3.427,1.307.3,2.651.318,3.52-.844,2.209-2.932.214-8.135-1.156-10.958-1.823-3.729-4.6-6.891-6.937-10.3-3.73-5.427-6.829-15.532-14.969-14.75ZM6258.15,866.985a12.775,12.775,0,0,0,5.115.256,102.734,102.734,0,0,0,13.057-2.167c9.115-1.849,17.927-3.411,27.24-2.536,6.708.614,13.312,1.786,20.068,1.291,2.9-.229,6.255-.484,8.8-2.062,1.786-1.11.567-2.839-.6-3.818-2.119-1.745-7.687-3.474-7.52-6.885.119-2.391,2.541-4.485,3.234-6.771,1.094-3.636.24-7.547.719-11.261.724-5.786,4.515-14.182-2.615-17.4a15.307,15.307,0,0,0-3.161-1.041,22.194,22.194,0,0,0-5.563-.552,25.252,25.252,0,0,0-7.943,1.323c-4.333,1.562-1.13,3.895,1.084,5.953,2.375,2.224,4.661,5,4.916,8.359.256,3.25-1.369,6.391-3.02,9.083a46.782,46.782,0,0,1-8.052,9.8,70.761,70.761,0,0,1,1.026-7.594c1.25-9.865-1.131-21.682-12.8-23.292a23.476,23.476,0,0,0-5.506-.031c-2.255.229-4.739.755-6.317,2.531-4.6,5.11-.151,14.646-8.542,17.323-7.479,2.375-11.646-6.667-18.385-7.9a20.923,20.923,0,0,0-7.641.136,32.994,32.994,0,0,0-6.214,1.817,21.809,21.809,0,0,0-5.291,3c-3.058,2.417-3.433,5.323-3.209,8.479-4.166,1.729-8.286,3.578-12.588,4.979-11.146,3.652-23.271,4.584-30.974,14.839-5.141,6.859,5.687,13.292-.823,19.219-7.495,6.812-18.682,6.677-27.74,10-2.573.948-9.145,3.172-8.833,6.916.286,3.235,5.385,6.948,7.042,9.7,1.536,2.542,2.724,5.849,4.812,7.985,2.526,2.6,6.307-1.323,8.214-2.886,4.692-3.849,9.343-8.583,15.015-10.994,2.042-.855,5.745-2.016,7.594-.073,2.995,3.156-3.578,8.963-5.417,10.781-6.119,6.062-17.1,14.484-16.307,24.255.3,3.568,2.8,3.146,5.313,1.818,4.557-2.391,8.635-5.651,13.614-7.188,1.084-.328,4.906-1.682,5.745-.151.708,1.282-1.937,3.417-2.615,4.094a107.752,107.752,0,0,0-9.6,10.5c-.723.948-3.114,3.713-1.968,5.083.854,1.021,2.948.287,3.953.047a57.1,57.1,0,0,0,9.328-3.083,66.034,66.034,0,0,0,17.661-11.219c4.313-3.818,8.193-8.182,13.011-11.412,6.344-4.26,13.614-4.932,21.073-4.348,4.89.406,12.307,2.63,16.067-1.818,4.3-5.084-4.3-7.865-7.885-8.375-5.609-.8-11.234-.422-16.891-.6-2.27-.058-5.312.1-7.343-1.125-1.907-1.146-1.865-4.318-3.5-5.9-2.558-2.469-5.735-4.485-6.172-8.36-.781-6.963,6.078-12.755,11.224-16.078C6240.2,874.355,6249.468,871.241,6258.15,866.985ZM6037.281,702.511a572.689,572.689,0,0,1,115.1,19.172l44.422,19.23c-3.219,10.3-14.86,17.281-24.688,19.822-7.276,1.881-14.859,2.209-21.526,6.058a34.656,34.656,0,0,0-15.2,19.729c-1.6,5.338-1.073,12.963-5.089,17.281-3.323,3.563-8.916,4.63-13.312,6.224-6.344,2.3-12.724,5.74-16.636,11.458-7.88,11.532,2.558,21.724,12.563,26.943,4.724,2.469,11.193,4.708,11.807,10.891.964,9.594-9.489,18.312-12.875,26.687-5.687,14.016-5.9,33.235-20.88,41.443-10.151,5.568-22.281,3.417-33.031,6.813-8.651,2.723-16.667,10.781-26.115,10.572-7.328-.166-10.021-6.989-10.713-13.291-1.62-14.485,6.562-31.125,1.448-45-3.625-9.839-14.547-14.047-22.563-19.474a34.506,34.506,0,0,1-13.406-17.219,37.829,37.829,0,0,0-6.557-8.422c-5.776-5.266-13.1-8.542-19.724-12.542a103.184,103.184,0,0,1-20.037-15.713c-4.989-5.068-14.182-15.308-12.828-23.427.333-2.047,2.9-.526,3.927-.016,4.479,2.255,8.708,4.932,13.266,7.068,1.942.916,3.911,1.713,5.927,2.437,3.791-3.625,6.078-8.26,1.114-11a13.537,13.537,0,0,0-4.77-1.364c-5.73-.771-21.136,1.578-16.969-9.36a12.679,12.679,0,0,1,2.541-4.01,17.051,17.051,0,0,1,6.438-4.318c4.245-1.619,8.906-1.849,13.286-2.932.422-.1.844-.224,1.261-.344a17.664,17.664,0,0,1-2.99-2.828c-8.317-10.2,6.438-16.646,12.589-21.594a32.008,32.008,0,0,0,5.76-6.072c5.854-8.063,8.318-20.183,17.839-25.027,9.12-4.645,21.6-1.38,30.916.86,4.016.963,8.063,1.969,12.11,3.036Q6033.359,708.282,6037.281,702.511Zm239.64,180.131a3.864,3.864,0,0,1,.089-3.052,16.508,16.508,0,0,1,5.4-7.568c5.854-4.6,14.442-3.245,21.422-4.646,2.843-.557,7.067-2.12,9.718-.182,2.167,1.6,1.339,4.844.662,6.948-1.4,4.271-5.042,8.39-5.328,12.948-.328,5.172,4.531,8.77,3.2,14.349a9.993,9.993,0,0,1-1.771,3.8c-6.229,8.328-15.75.359-22.49-2.782a67.411,67.411,0,0,1-6.588-3.276Zm-36.552,5.713c-.167-.89,1.037-1.807,1.625-2.359a17,17,0,0,1,1.714-1.417c1.583-1.187,7.234-4.781,7.791-.7a22.7,22.7,0,0,1-.328,5.516c-.422,3.807-.375,7.593-3.807,10.015-3.641,2.589-11.266,4.256-12.292-1.927a9.491,9.491,0,0,1,.2-3.245Zm-281.807-18,5.041-.317c3.943-1.61,6.11-5.938,2.136-9.068-3.276-2.583-8.38-3.427-12.3-4.479-2.031-.542-8.724-3.261-9.057.828a5.962,5.962,0,0,0,.088,2.015,15.294,15.294,0,0,0,.662,2.287,17.974,17.974,0,0,0,2.213,4.344c.406.557.813,1.083,1.234,1.609-9.447-.135-17.645-8.453-27.364-8.635a36.251,36.251,0,0,0-13.208,2.531,56.907,56.907,0,0,0-6.74,3.083,36.273,36.273,0,0,0-4.255,2.568,20.063,20.063,0,0,0-2.193,1.849,8.2,8.2,0,0,0-1.448,1.88c-2.239,3.792,4.557,5.417,6.787,6.031.614.167,1.229.318,1.849.479.677.183,1.338.349,2.015.527.693.182,1.386.364,2.078.572,1.38.422,2.948.948,4.287,1.474,1.5.589,2.885,1.219,4.343,1.927,6.532,3.2,12.865,8.193,20.178,9.459,7.2,1.245,14.63-1.792,20.437-5.9,2.109-1.49,4.573-3.536,5.162-6.2C5961.109,876.517,5959.645,873.241,5958.562,870.355Zm432.818-5.083c-1.188-.828-3.115-.5-4.407-.224a15.221,15.221,0,0,0-10.093,7.609c-1.1,1.865-2.542,4.4-.995,6.417,4.573,5.974,12.427.333,16.38-3.141,2.062-1.807,4.969-3.88,3.911-6.932Zm-12.547-14.75c-.287,2.026-.042,4-.558,6.026a10.113,10.113,0,0,1-2.177,4.469c-1.552,1.656-3.791,2-5.974,2.166-3.458.287-6.916.136-10.364.631-3.282.468-6.573,1.744-9.912,1.791-1.442.011-3.1-.271-3.776-1.734-.995-2.162.479-4.552,1.823-6.193,2.36-2.932,5.849-5.156,7.521-8.614,1.667-3.4,1.411-7.084,3.786-10.224Zm-74.927-62.464q10.249,6.384,20.218,13.2a4.948,4.948,0,0,1-.979.662c-4.5,2.364-10.437,1.234-15.3,2.406-10.271,2.453-18.021,8.74-29.062,6.167-5.115-1.188-17.281-7.641-9.719-14.167a20.937,20.937,0,0,1,4.682-2.839c4.183-1.953,8.495-3.458,12.526-5.729Zm-298.292-26.812-.177.432c-.469-.042-.932-.088-1.4-.13l1.672-.516-.094.214"/><path class="cls-6" d="M5788.562,1328.584s-315.412,33.006-561.11,32.167c-144.645-.495-273.692-34.13-277-35.646-21.546-9.89-42.713-21.453-65.494-28.349-5.61-1.692-18.657-4.323-15.063,6.271a19.336,19.336,0,0,0,2.365,4.589c4.849,7.166,12.724,11.656,20.192,15.64,1.7.912,3.412,1.808,5.125,2.714-5.333-.6-10.645-1.443-15.864-2.25-17.49-2.7-34.828-6.25-52.3-9.073-7.953-1.276-16.125-2.609-24.214-2.484-3.26.046-7.791.14-10.39,2.484-2.7,2.437-.073,5.7,1.995,7.474,5.755,4.948,13.807,7.578,20.9,9.88,20.88,6.792,51.338,12.526,62.1,15.662,1.281.369,3.328,1.776,2.463,3.156-.422.682-1.76,1.026-2.739,1.068a47.238,47.238,0,0,1-7.277-.672c-17.489-2.7-34.828-6.245-52.3-9.068-7.959-1.276-16.125-2.609-24.214-2.484-3.26.052-7.792.135-10.385,2.479-2.7,2.442-.078,5.7,1.994,7.479,5.756,4.937,13.8,7.583,20.9,9.88,21.224,6.9,50.891,12.609,61.907,15.88,1.791.537,5.192,2.115,4.166,3.756-.323.515-2.359.567-3.531.406-8.537-1.229-31.031-5.084-47.682-7.766-7.953-1.281-16.125-2.609-24.209-2.489-3.26.052-7.791.135-10.39,2.479-2.7,2.448-.078,5.708,1.994,7.484,5.756,4.932,13.8,7.578,20.9,9.88,19.734,6.412,46.536,11.787,56.687,14.813,1.714.505,5.052,1.974,4.219,3.312-.6.964-2.755.672-4.146.61-3.5-.177-10.807-.662-16.839-1.631-7.953-1.291-16.125-2.619-24.208-2.484-3.26.037-7.8.13-10.4,2.474-2.7,2.438-.073,5.7,2,7.474,5.755,4.948,13.8,7.578,20.9,9.88,12.266,4,188.146,39.063,374.683,40.584,254.875,2.072,541-30.115,561.312-28.823l12.943-106.756"/><path class="cls-2" d="M5028.353,1460.485s67.386.969,163.995-.223c112.959-1.407,265.875-5.766,397.729-18.1,144.026-13.469,269.532-58.553,272.688-60.36,20.562-11.776,40.609-25.2,62.682-34.1,5.438-2.187,18.188-5.99,15.568,4.875a19.761,19.761,0,0,1-1.938,4.8c-4.2,7.573-11.63,12.75-18.708,17.391q-2.43,1.578-4.87,3.156c5.256-1.078,10.469-2.386,15.6-3.662,17.172-4.255,34.13-9.349,51.266-13.718,7.812-2,15.838-4.053,23.9-4.657,3.25-.244,7.776-.562,10.567,1.537,2.917,2.187.589,5.672-1.312,7.635-5.281,5.432-13.073,8.776-19.927,11.719-20.188,8.625-50,17.073-60.438,21.161-1.255.48-3.156,2.068-2.177,3.365a3.75,3.75,0,0,0,2.828.812,44.273,44.273,0,0,0,7.188-1.322c17.167-4.25,34.125-9.344,51.266-13.714,7.807-2,15.833-4.052,23.895-4.656,3.25-.235,7.776-.552,10.578,1.536,2.907,2.2.579,5.683-1.328,7.63-5.281,5.438-13.067,8.792-19.922,11.724-20.515,8.776-49.557,17.115-60.223,21.37-1.74.682-4.99,2.563-3.818,4.11.364.484,2.4.354,3.557.083,8.391-1.984,30.443-7.844,46.787-12.016,7.812-1.984,15.822-4.036,23.9-4.64,3.25-.25,7.766-.568,10.568,1.536,2.906,2.182.589,5.667-1.312,7.63-5.3,5.438-13.073,8.776-19.938,11.709-19.073,8.161-45.286,15.927-55.13,19.849-1.656.661-4.849,2.416-3.9,3.671.682.9,2.8.428,4.182.235,3.474-.485,10.708-1.63,16.63-3.141,7.8-1.984,15.823-4.052,23.881-4.646,3.25-.244,7.781-.562,10.578,1.537,2.906,2.187.583,5.672-1.323,7.635-5.281,5.433-13.068,8.776-19.927,11.709-11.865,5.078-183.875,55.791-369.526,74.036-253.662,24.938-541.526,18.557-561.636,21.667l-22.469-105.157"/><path class="cls-10" d="M4875.952,1160.939c27.657-33.141,75.959-31.724,101.667-16.115a6.672,6.672,0,0,0,6.927-11.406c-30.057-18.24-86.51-19.766-118.838,18.979a6.669,6.669,0,1,0,10.244,8.542"/><path class="cls-10" d="M5970.468,1163.319c-27.651-33.146-75.963-31.729-101.667-16.125a6.669,6.669,0,1,1-6.921-11.4c30.057-18.24,86.505-19.761,118.828,18.979a6.669,6.669,0,1,1-10.24,8.547"/><path class="cls-10" d="M5262.171,1108.324c-35.515-24.531-81.677-10.25-102.271,11.661a6.667,6.667,0,1,1-9.718-9.13c24.067-25.609,78.057-42.187,119.573-13.505a6.67,6.67,0,1,1-7.584,10.974"/><path class="cls-10" d="M5584.244,1110.694c35.516-24.526,81.672-10.24,102.266,11.666a6.667,6.667,0,1,0,9.724-9.125c-24.068-25.625-78.058-42.187-119.578-13.5a6.667,6.667,0,1,0,7.588,10.964"/><path class="cls-10" d="M5013.036,1225.308c40.5,57.417,119.005,32.506,128.375-20.328a6.67,6.67,0,0,0-13.136-2.323c-7.593,42.839-71.489,61.521-104.338,14.964a6.669,6.669,0,0,0-10.9,7.687"/><path class="cls-10" d="M5833.39,1227.683c-40.505,57.417-119.016,32.5-128.375-20.323a6.672,6.672,0,1,1,13.141-2.322c7.588,42.838,71.479,61.526,104.333,14.963a6.668,6.668,0,1,1,10.9,7.682"/><path class="cls-11" d="M4895.187,1169.913c22.526,0,40.812,10.609,40.812,23.661s-18.286,23.667-40.812,23.667-40.818-10.6-40.818-23.667,18.292-23.661,40.818-23.661"/><path class="cls-12" d="M5951.234,1172.293c-22.521,0-40.813,10.6-40.813,23.666s18.292,23.662,40.813,23.662,40.817-10.609,40.817-23.662-18.291-23.666-40.817-23.666"/><path class="cls-11" d="M5237.515,1123.277c22.526,0,40.818,10.6,40.818,23.667s-18.292,23.656-40.818,23.656-40.818-10.6-40.818-23.656,18.292-23.667,40.818-23.667"/><path class="cls-12" d="M5608.9,1125.652c-22.526,0-40.812,10.6-40.812,23.662s18.286,23.666,40.812,23.666,40.818-10.609,40.818-23.666-18.292-23.662-40.818-23.662"/><g class="cls-13"><path class="cls-14" d="M6221.52,656.673c.667,2.594,2.526,4.333,4.615,4.333s3.942-1.739,4.625-4.333c2.3-8.9,5.109-19.729,7.515-29.021,3.412-13.156,11.3-23.489,21.344-27.953,7.089-3.156,15.354-6.833,22.146-9.854,1.979-.88,3.318-3.313,3.318-6.042s-1.339-5.172-3.318-6.057c-6.792-3.021-15.057-6.7-22.146-9.839-10.042-4.463-17.932-14.8-21.344-27.968-2.406-9.287-5.213-20.115-7.515-29.021-.683-2.594-2.526-4.328-4.625-4.328s-3.948,1.734-4.615,4.328c-2.318,8.906-5.109,19.734-7.515,29.021-3.412,13.171-11.3,23.5-21.344,27.968-7.1,3.141-15.365,6.818-22.156,9.839-1.985.885-3.308,3.318-3.308,6.057s1.323,5.162,3.308,6.042c6.791,3.021,15.057,6.7,22.156,9.854,10.041,4.464,17.932,14.8,21.344,27.953,2.406,9.292,5.2,20.12,7.515,29.021"/></g><path class="cls-14" d="M4499.807,1911.949c.671,2.594,2.526,4.339,4.614,4.339s3.948-1.745,4.62-4.339c2.307-8.906,5.109-19.729,7.516-29.016,3.406-13.166,11.3-23.5,21.343-27.963,7.094-3.151,15.36-6.823,22.157-9.844,1.979-.88,3.307-3.312,3.307-6.047s-1.328-5.177-3.307-6.057c-6.8-3.021-15.063-6.693-22.157-9.844-10.047-4.463-17.937-14.8-21.343-27.958-2.407-9.292-5.209-20.115-7.516-29.021-.672-2.594-2.526-4.339-4.62-4.339s-3.943,1.745-4.614,4.339c-2.308,8.906-5.115,19.729-7.521,29.021-3.407,13.156-11.292,23.495-21.344,27.958l-22.151,9.844c-1.979.88-3.313,3.312-3.313,6.057s1.334,5.167,3.313,6.047l22.151,9.844c10.052,4.463,17.937,14.8,21.344,27.963,2.406,9.287,5.213,20.11,7.521,29.016"/><g class="cls-15"><path class="cls-14" d="M4667.348,655.8c.672,2.589,2.531,4.333,4.62,4.333s3.948-1.744,4.62-4.333c2.3-8.906,5.109-19.734,7.515-29.026,3.407-13.156,11.3-23.5,21.344-27.963,7.094-3.141,15.36-6.818,22.156-9.839,1.98-.875,3.308-3.318,3.308-6.052s-1.328-5.167-3.308-6.052c-6.8-3.026-15.062-6.693-22.156-9.839-10.047-4.463-17.937-14.807-21.344-27.968-2.406-9.287-5.213-20.115-7.515-29.021-.672-2.589-2.531-4.334-4.62-4.334s-3.948,1.745-4.62,4.334c-2.307,8.906-5.109,19.734-7.515,29.021-3.412,13.161-11.3,23.5-21.344,27.968-7.094,3.146-15.36,6.813-22.156,9.839-1.98.885-3.313,3.318-3.313,6.052s1.333,5.177,3.313,6.052c6.8,3.021,15.062,6.7,22.156,9.839,10.047,4.468,17.932,14.807,21.344,27.963,2.406,9.292,5.208,20.12,7.515,29.026"/></g><path class="cls-14" d="M6364.468,2091.079c.672,2.594,2.537,4.339,4.635,4.339,2.079,0,3.943-1.745,4.615-4.339,2.307-8.9,5.1-19.729,7.51-29.021,3.407-13.156,11.3-23.494,21.344-27.958,7.1-3.151,15.365-6.823,22.162-9.844,1.979-.88,3.307-3.312,3.307-6.052s-1.328-5.172-3.307-6.052c-6.8-3.015-15.063-6.693-22.162-9.844-10.041-4.463-17.937-14.8-21.344-27.958-2.406-9.292-5.2-20.115-7.51-29.021-.672-2.594-2.536-4.338-4.615-4.338-2.1,0-3.963,1.744-4.635,4.338-2.292,8.906-5.1,19.729-7.505,29.021-3.412,13.162-11.3,23.5-21.349,27.958-7.1,3.151-15.365,6.829-22.162,9.844-1.963.88-3.3,3.313-3.3,6.052s1.339,5.172,3.3,6.052c6.8,3.021,15.063,6.693,22.162,9.844,10.047,4.464,17.937,14.8,21.349,27.958,2.406,9.292,5.213,20.12,7.505,29.021"/><path class="cls-2" d="M6514.145,1348.73c-.38-.218-.745-.442-1.125-.666a28.149,28.149,0,0,1-7.6-6.651c-2.974-3.818-10.922-18.37-2.187-20.709,8.843-2.359,24.625,3.823,33.2,6.255,9.3,2.646,41.812,13.881,41.312,24.808-.88,19.739-7.724,60.5-14.885,81.88-3.2,9.6-9.313,8.026-17.87,5.875-8.651-2.172-37.063-12.969-39.995-15.245-5.036-3.911-10.969-9.823-10-17.458.776-6.089,13.734-2.266,13.854-2.292-1.078-.588-2.156-1.2-3.2-1.844a27.8,27.8,0,0,1-7.619-6.651c-2.959-3.817-10.922-18.369-2.183-20.708,4.078-1.083,9.615-.359,15.245.974-.578-.333-1.167-.677-1.745-1.031a28.064,28.064,0,0,1-7.6-6.651c-2.974-3.818-10.927-18.37-2.2-20.7,3.932-1.047,9.2-.417,14.6.817"/><path class="cls-6" d="M4406.176,1348.73c.375-.224.75-.442,1.125-.672a27.993,27.993,0,0,0,7.61-6.645c2.963-3.818,10.922-18.375,2.182-20.709-8.839-2.364-24.615,3.823-33.193,6.255-9.3,2.641-41.817,13.886-41.323,24.808.9,19.739,7.735,60.5,14.886,81.88,3.213,9.609,9.328,8.031,17.875,5.875,8.64-2.172,37.057-12.969,39.989-15.25,5.037-3.906,10.98-9.818,10-17.453-.776-6.094-13.724-2.266-13.843-2.292,1.078-.594,2.145-1.2,3.2-1.844a27.959,27.959,0,0,0,7.609-6.656c2.963-3.812,10.922-18.364,2.187-20.7-4.072-1.094-9.619-.37-15.25.969.589-.339,1.172-.682,1.745-1.036a27.787,27.787,0,0,0,7.61-6.646c2.968-3.813,10.921-18.37,2.187-20.709-3.911-1.041-9.187-.411-14.594.823"/><path class="cls-16" d="M4726.583,922.262s71.713,69.187,281.906,69.187c205.245,0,281.906-69.187,281.906-69.187V676.079H4726.583Z"/><path d="M5009.723,1001.334c206.677,0,284.677-68.807,287.922-71.739l2.641-2.938V666.2H4716.692v260.26l3.635,2.917C4723.379,932.308,4797.973,1001.334,5009.723,1001.334ZM5280.5,917.5c-14.833,12.25-96.495,64.068-272.01,64.068-179.693,0-257.177-51.745-272.016-63.912V685.965H5280.5Z"/><path class="cls-17" d="M4825.5,765.058v259.355l-17.312-23.079-17.308,14.829V755.173"/><g class="cls-18"><path d="M4835.39,1054.069V765.058H4815.6v229.7L4809.77,987l-9,7.662V755.173h-19.786v282.484l25.619-21.942Z"/></g><path class="cls-19" d="M5008.489,832.465,5453.6,674.319l-445.114-158.13-445.115,158.13Z"/><g class="cls-20"><path d="M5008.489,842.97,5483.13,674.329,5008.489,505.7,4533.848,674.334Zm415.588-168.641L5008.489,821.991,4592.9,674.334l415.589-147.656Z"/></g><path class="cls-21" d="M7.842,2168.2H94.259v-40.3H7.842Z"/><path class="cls-21" d="M115.126,2208.976h69.422v-36.411H203.97c44.662,0,73.552-25.974,73.552-66.756,0-40.536-28.89-66.755-74.281-66.755H115.126Zm67.48-86.9v-30.344h8.984c11.406,0,17.479,5.1,17.479,15.052,0,10.193-6.073,15.292-17.479,15.292Z"/><path class="cls-21" d="M293.041,2208.976h68.208v-42.24H371.2l16.021,42.24h73.8l-25.489-57.047c14.078-11.166,21.849-27.911,21.849-49.031,0-39.568-27.433-63.844-72.339-63.844h-92Zm67.24-89.328V2089.3h11.651c10.437,0,16.5,4.854,16.5,15.047s-6.068,15.3-16.5,15.3Z"/><path class="cls-21" d="M565.868,2212.372c57.526,0,95.641-36.412,95.641-88.354s-38.115-88.36-95.641-88.36-95.64,36.412-95.64,88.36S508.337,2212.372,565.868,2212.372Zm-26.463-88.354c0-15.782,10.927-26.7,26.463-26.7s26.459,10.921,26.459,26.7-10.927,26.7-26.459,26.7S539.405,2139.794,539.405,2124.018Z"/><path class="cls-21" d="M671.928,2208.976h37.38c47.578,0,75.74-25,75.74-68.453V2039.054H715.62v87.391c0,14.807-5.828,20.39-20.145,20.39H671.928Z"/><path class="cls-21" d="M808.1,2208.976H939.418V2161.4H874.361v-15.776h57.291V2101.2H874.361v-15.3h63.114v-46.849H808.1Z"/><path class="cls-21" d="M958.825,2208.976h69.422v-56.557h10.682l22.818,56.557h77.677l-37.865-82.531a89.262,89.262,0,0,0,9.464-19.906l22.333-67.485h-73.307l-11.9,40.3c-2.911,10.193-6.8,12.865-16.99,12.865h-2.916v-53.162H958.825Z"/><path class="cls-21" d="M1195.238,2208.976h69.422V2100.471h46.609v-61.417h-162.64v61.417h46.609Z"/><path class="cls-21" d="M1461.506,2212.372c51.7,0,82.531-27.427,82.531-75v-98.313h-69.421v95.4c0,10.438-4.131,15.776-13.11,15.776-8.739,0-12.864-5.338-12.864-15.776v-95.4h-69.427v98.313C1379.215,2184.945,1410.043,2212.372,1461.506,2212.372Z"/><path class="cls-21" d="M1566.355,2208.976h66.756v-33.74l-1.214-28.89,1.938-.24,20.88,29.13h32.042l20.63-29.13,2.187.485-1.458,28.645v33.74h66.755V2039.054H1718.8l-48.062,61.172-48.308-61.172h-56.073Z"/><path class="cls-21" d="M1836.019,2208.976h75.495l8.739-37.87,8.979-36.9h2.188l8.979,36.9,8.74,37.87h75.25l49.765-169.922h-73.067l-8.011,40.3-8.01,36.9h-2.183l-8.739-36.9-8.5-40.3h-70.88l-8.25,40.3-8.5,36.412h-2.183l-8.255-36.412-8.01-40.3H1786.5Z"/><path class="cls-21" d="M2085.779,2208.976H2217.1V2161.4h-65.058v-15.776h57.292V2101.2h-57.292v-15.3h63.115v-46.849h-129.38Z"/><path class="cls-21" d="M2236.508,2208.976h128.9v-62.385H2305.93V2039.054h-69.422Z"/><path class="cls-21" d="M2423.892,2208.976h69.422V2100.471h46.609v-61.417h-162.64v61.417h46.609Z"/><path class="cls-21" d="M2627.777,2212.372c49.037,0,77.438-20.875,77.438-56.313,0-30.588-18.933-46.364-64.084-53.161-19.906-2.912-25.974-6.313-25.974-13.354,0-5.094,4.125-8.25,10.922-8.25,8.011,0,12.141,4.37,12.141,13.109h63.6c-1.7-37.385-29.375-58.745-76.224-58.745-46.365,0-74.281,20.631-74.281,55.344,0,30.828,18.937,46.609,62.146,52.917,18.932,2.916,25.729,6.557,25.729,13.594,0,5.343-3.886,8.5-10.922,8.5-8.255,0-12.625-4.615-12.625-13.355H2550.1C2550.1,2190.283,2578.5,2212.372,2627.777,2212.372Z"/><path class="cls-21" d="M2805.455,2212.372c51.458,0,89.083-30.828,93.7-79.375h-65.787c-3.641,11.167-13.1,17.719-25,17.719-15.052,0-25.005-10.922-25.005-26.7,0-16.021,10.2-26.7,25.25-26.7,11.406,0,20.875,6.312,24.515,17.234h65.782c-6.8-50.005-41.021-78.891-93.7-78.891-53.646,0-91.026,36.167-91.026,88.36C2714.184,2176.69,2750.6,2212.372,2805.455,2212.372Z"/><path class="cls-21" d="M3010.794,2208.976h69.427V2039.054h-69.427v52.432h-26.459v-52.432h-69.421v169.922h69.421v-55.344h26.459Z"/><path class="cls-21" d="M3184.826,2212.372c51.7,0,82.531-27.427,82.531-75v-98.313h-69.422v95.4c0,10.438-4.13,15.776-13.109,15.776-8.74,0-12.865-5.338-12.865-15.776v-95.4h-69.427v98.313C3102.534,2184.945,3133.362,2212.372,3184.826,2212.372Z"/><path class="cls-21" d="M3289.675,2208.976h128.9v-62.385H3359.1V2039.054h-69.422Z"/><path class="cls-21" d="M3435.793,2208.976h131.323V2161.4h-65.057v-15.776h57.291V2101.2h-57.291v-15.3h63.114v-46.849h-129.38Z"/><path class="cls-22" d="M237.951,1568.131q-.546-20.141,1.042-41.9a212.027,212.027,0,0,0-1.042-42.479q-61.023-.514-119.4-1.833a949.4,949.4,0,0,0-113.041,3.958,3.064,3.064,0,0,1,1.062,2.125v.542a69.366,69.366,0,0,1,2.917,18.833q.265,10.361.271,20.438t.521,19.1q.538,9.024,3.729,14.312,9.539,0,26.25.813,16.726.8,35.291,1.583t36.355,1.854q17.789,1.063,29.979,2.646-15.375,21.774-33.167,46.188-17.773,24.4-35.542,49.875t-33.708,51.479a460.84,460.84,0,0,0-27.583,52,184.516,184.516,0,0,1,.791,22.021q-.273,10.875-.27,21.771,0,10.875.52,21.229a74.725,74.725,0,0,0,3.73,19.875q56.789-3.165,111.708-2.625,54.914.523,105.333,3.166v-1.062q1.6-19.1,2.646-41.917a244.068,244.068,0,0,0-1.583-43v-1.583q-22.814,1.062-38.479,1.333-15.649.25-29.709.521t-29.187,1.333q-15.126,1.063-36.354,3.709l.541-.521q33.414-51.477,69.5-101.354t66.875-101.9Z"/><path class="cls-22" d="M499.031,1497.027q-6.359-3.7-16.437-4.771a138.8,138.8,0,0,0-21.229-.521q-11.149.524-22.021,1.855-10.875,1.313-17.792,1.854-1.586,61.561-1.854,127.375-.25,65.8-2.917,129.458-2.647,12.211-11.666,19.1a34.68,34.68,0,0,1-19.646,7.438,35.883,35.883,0,0,1-20.438-5.313q-9.811-5.828-13.52-18.562a2075.669,2075.669,0,0,1-4.771-260.563v-.541a101.873,101.873,0,0,0-17.521-2.9q-9.548-.813-19.625-.813t-19.917.542q-9.812.524-17.771.521h-.52l.52.541q1.064,70.047-.541,141.146-1.587,71.111-1.584,141.167,1.064,24.4,14.063,41.646a97.81,97.81,0,0,0,32.375,27.6,140.234,140.234,0,0,0,43.25,14.312,178.238,178.238,0,0,0,46.167,1.875q38.2-3.733,60.5-28.125,22.288-24.414,26.541-59.437,7.414-68.453,8.479-137.708T499.031,1497.027Z"/><path class="cls-22" d="M753.239,1667.381c-.709.349-1.063.521-1.063.521a.479.479,0,0,0-.542.542v.521A148.8,148.8,0,0,1,752.7,1684.9q0,6.36-.271,12.458-.25,6.11,0,12.48t1.333,14.854a25.283,25.283,0,0,0,7.688,1.333q5.038.25,11.146,0,6.1-.266,11.666-.542a43.2,43.2,0,0,1,8.771.271q1.6.524,1.854,4.771a85.431,85.431,0,0,1,0,9.563,91.906,91.906,0,0,1-1.062,10.333q-.8,5.047-1.313,7.167a28.551,28.551,0,0,1-6.375,11.958,31.733,31.733,0,0,1-10.083,7.146,104.23,104.23,0,0,1-16.187,4.25,53.6,53.6,0,0,1-16.709.521,34.885,34.885,0,0,1-12.208-4.771q-10.086-7.953-13.271-21.75a191.069,191.069,0,0,1-4.25-25.479q-1.586-19.626-2.125-41.375-.524-21.766.542-42.209t3.437-38.479a210.586,210.586,0,0,1,6.1-30.771,63.059,63.059,0,0,1,2.917-8.75q1.875-4.515,2.938-5.583a20.326,20.326,0,0,1,14.833-6.354q8.5,0,17.521.521a20.427,20.427,0,0,1,13.791,5.041,59.177,59.177,0,0,1,10.355,11.688,68.468,68.468,0,0,1,7.437,14.333q2.914,7.688,4.5,12.979,7.977,1.063,13.813,1.6,5.827.524,11.395.521t11.146-.25q5.579-.266,13.542-.271,8.476-.538,12.187-.541,3.727,0,4.792-1.584l.521-3.187q3.726-32.375-5.833-55.979-9.548-23.625-28.646-37.938-19.11-14.328-45.646-19.9a167,167,0,0,0-55.708-1.875,173.972,173.972,0,0,0-27.605,6.375,69,69,0,0,0-23.875,13.271,59.417,59.417,0,0,0-22.041,27.063,150.57,150.57,0,0,0-9.271,33.958q-2.649,16.984-3.708,34.771t-1.605,34.75q-.522,19.625-.27,34.75t1.062,28.667q.813,13.523,1.875,27.333t2.646,30.771q1.062,10.61,2.917,20.958t3.458,16.188q6.351,22.812,17.5,38.208,11.141,15.375,32.375,24.4a97.614,97.614,0,0,0,26.792,6.9,142.709,142.709,0,0,0,28.916.27,257.588,257.588,0,0,0,29.188-4.25q14.328-2.92,27.6-6.625a88.885,88.885,0,0,0,33.958-21.75q13.814-14.328,16.459-41.395a278.364,278.364,0,0,0,4.25-60.23q-1.064-31.578-4.25-59.708l-.542-.521h-1.063q-5.3,0-20.416-1.333t-32.646-1.854q-17.5-.516-33.167.271Q760.132,1663.137,753.239,1667.381Z"/><path class="cls-22" d="M1125.242,1779.881q-36.109,1.063-70.063-.791-33.96-1.875-68.979-1.875l-.541-.521q-1.063-12.727-1.855-31.834a164.034,164.034,0,0,1,1.855-34.5q2.664-2.124,10.083-2.645,7.437-.54,16.708-.542,9.289,0,19.375-.25a78.4,78.4,0,0,0,18.063-2.4q-.548-19.641.521-37.687a176.776,176.776,0,0,0-1.584-36.084v-.521q-16.461-.538-32.916-.541-16.438,0-32.355-1.063l-.541-.521a83.053,83.053,0,0,1-1.854-30.52,214.356,214.356,0,0,0,1.333-31.563l.521-.542H984.6q17.515-1.578,35.021-1.583t35.021.271q17.516.25,34.771-.542a202.044,202.044,0,0,0,34.229-4.521v-.52q0-18.579,1.312-37.688a178.712,178.712,0,0,0-1.312-37.667q0-.538-10.625-1.062-10.609-.516-28.125-.521-17.5,0-40.334.521-22.812.524-47.229,1.062-24.4.524-48.541,1.334t-44.834,1.854q-2.672,45.625-3.208,90.75t0,90.208q.539,45.109,1.6,90.479t1.063,91.542a935.439,935.439,0,0,0,107.458,2.375q56-1.851,110.125-1.312a149.11,149.11,0,0,0,4.771-34.23q.516-18.312-.521-35.291Z"/><path class="cls-22" d="M1380.5,1600.506q7.415-39.789-6.375-65.791a91.51,91.51,0,0,0-39.271-39.271,156.205,156.205,0,0,0-27.854-9.542,163.14,163.14,0,0,0-30.791-4.521,182.436,182.436,0,0,0-31.042,1.063,105.544,105.544,0,0,0-28.125,7.166,109.562,109.562,0,0,0-43.25,32.375,119.682,119.682,0,0,0-24.146,48.292q-6.359,26.523.792,54.646t31.583,51.479a90.492,90.492,0,0,0,16.458,11.146,71.873,71.873,0,0,0,19.625,6.9q11.142,2.124,23.875,4.521a107.878,107.878,0,0,1,23.625,7.145,63.491,63.491,0,0,1,18.834,12.48q7.953,7.688,9.562,20.416,3.165,18.586-7.187,27.6a37.014,37.014,0,0,1-24.4,9.292,44.72,44.72,0,0,1-26.542-8.229q-12.46-8.5-13.521-25.479-18.046.546-40.333-.792a203.329,203.329,0,0,0-40.854,1.333v3.188q-1.61,25.461,9,45.375a102.96,102.96,0,0,0,28.667,33.687,140.05,140.05,0,0,0,41.125,21.5,157.394,157.394,0,0,0,46.437,8.209,129.324,129.324,0,0,0,32.1-2.9,108.858,108.858,0,0,0,29.188-10.9,92.884,92.884,0,0,0,24.146-19.1,89.2,89.2,0,0,0,16.979-28.125,125.2,125.2,0,0,0,9.291-28.917,123.327,123.327,0,0,0,2.125-29.979,107.084,107.084,0,0,0-5.583-28.937,88.58,88.58,0,0,0-14.312-26.25,127.9,127.9,0,0,0-39.542-37.688,125.607,125.607,0,0,0-52.271-18.042,77.456,77.456,0,0,1-20.708-5.833q-9.548-4.25-13.792-16.979-.524-3.726-.792-7.167a20.161,20.161,0,0,1,.792-7.166q2.125-14.851,14.063-20.167a39.386,39.386,0,0,1,24.666-2.646,40.651,40.651,0,0,1,21.771,12.208q9.016,9.547,5.833,23.875a126.714,126.714,0,0,0,39.813,4.521,304.06,304.06,0,0,0,39.792-4Z"/><path class="cls-22" d="M1621.413,1483.235a1014.477,1014.477,0,0,0-112.25-5.562q-57.562.25-111.688.792c0,.349.084.52.25.52s.271.183.271.542q-1.062,12.735-1.062,26.542t.271,25.729q.266,11.937,1.062,20.437t1.854,10.605q3.188,1.062,11.146,1.062t17.5.271q9.563.25,19.1,1.062a44.115,44.115,0,0,1,15.938,3.959l.521.541q3.188,74.3,3.979,126.834t.521,86.229q-.25,33.687-.792,50.687-.523,16.985,0,19.084a127.341,127.341,0,0,1,20.708-1.584h22.542q11.413,0,22.812-.25a147.482,147.482,0,0,0,20.98-1.875V1847.8q-1.063-57.828-1.605-100.542-.523-42.726-1.062-73.229-.523-30.516-.792-49.9-.249-19.374-.25-31.312t.25-17.5a58.348,58.348,0,0,1,.813-8.229,1.084,1.084,0,0,1,.25-.792,1.108,1.108,0,0,0,.271-.813h1.583q24.952-1.062,39.812-1.583,14.852-.539,24.938,1.583a336.982,336.982,0,0,0,2.917-41.916Q1622.471,1500.755,1621.413,1483.235Z"/><path class="cls-22" d="M1819.355,1665.777q-2.125-9.015-5.854-24.4-3.711-15.39-7.959-33.958t-8.75-38.75q-4.5-20.165-8.479-37.938t-7.437-31.854q-3.438-14.062-5.042-20.958-17.5,1.61-28.4,1.875-10.875.25-17.771.25h-11.146a55.259,55.259,0,0,0-7.958.542q-12.734,42.437-23.354,85.437-10.61,42.984-19.625,82.792t-15.667,75.083q-6.624,35.274-11.4,62.354-4.773,27.063-7.437,44.042t-3.708,20.687a1.468,1.468,0,0,0,1.062.542q36.078-.539,53.063.521t21.229,0a1.132,1.132,0,0,0,.791-.25,1.082,1.082,0,0,1,.792-.271,83.18,83.18,0,0,0,7.438-20.687q2.64-11.688,5.041-24.146,2.391-12.477,4.771-23.9a102.016,102.016,0,0,1,6.1-19.9q5.829,0,9.271-.271t6.375-.271h6.646a75.215,75.215,0,0,1,10.6,1.063,128.362,128.362,0,0,1,6.9,19.1q3.188,11.148,6.1,23.354,2.937,12.211,5.854,23.9a185.758,185.758,0,0,0,6.1,20.146h.521a210.254,210.254,0,0,0,36.084,4.5,146.722,146.722,0,0,0,35.02-2.375v-.521Zm-54.125,34.5q-10.086,0-20.167.271-10.086.25-19.1-.271,3.7-27.063,6.625-50.417t5.312-38.729q2.391-15.39,5.313-20.437t5.833,3.979q2.914,9.024,6.9,34.5T1765.23,1700.277Z"/><path class="cls-22" d="M2100.083,1803.756a56.214,56.214,0,0,1-.271-9.812q.266-5.579.792-10.875.539-5.852.542-11.688a116.164,116.164,0,0,1-15.125.271q-10.875-.266-24.938-.792t-29.729-1.333q-15.648-.789-29.458-1.312-13.8-.54-24.146-.813t-14.063.792v-.521q.54-33.953.271-70.313t-.812-72.958q-.524-36.626-.792-72.979-.251-36.351.813-70.833-7.438-3.187-19.646-4.771a191.183,191.183,0,0,0-24.938-1.6,202.129,202.129,0,0,0-23.875,1.333q-11.148,1.313-16.458,3.437.538,37.149,1.062,67.667.54,30.523,1.063,57.583.538,27.063.542,53.063t-.271,53.854q-.274,27.859-1.334,59.979t-2.645,71.9v9.542q64.2,1.062,102.687,1.062t60.5-.541q22.015-.524,31.292-1.042a109.526,109.526,0,0,1,15.125,0q5.851,0,9.021-.25,3.188-.265,4.52-4.771t1.334-14.333Q2101.146,1822.866,2100.083,1803.756Z"/><path class="cls-22" d="M2331.452,1483.235a1014.465,1014.465,0,0,0-112.25-5.562q-57.562.25-111.687.792c0,.349.083.52.25.52s.27.183.27.542q-1.062,12.735-1.062,26.542t.271,25.729q.265,11.937,1.062,20.437t1.854,10.605q3.188,1.062,11.146,1.062t17.5.271q9.563.25,19.1,1.062a44.115,44.115,0,0,1,15.938,3.959l.521.541q3.188,74.3,3.979,126.834t.521,86.229q-.25,33.687-.792,50.687-.524,16.985,0,19.084a127.341,127.341,0,0,1,20.708-1.584h22.542q11.415,0,22.813-.25a147.481,147.481,0,0,0,20.979-1.875V1847.8q-1.064-57.828-1.6-100.542-.523-42.726-1.063-73.229-.524-30.516-.792-49.9-.249-19.374-.25-31.312t.25-17.5a58.5,58.5,0,0,1,.813-8.229,1.084,1.084,0,0,1,.25-.792,1.108,1.108,0,0,0,.271-.813h1.583q24.954-1.062,39.813-1.583,14.852-.539,24.937,1.583a336.6,336.6,0,0,0,2.917-41.916Q2332.509,1500.755,2331.452,1483.235Z"/><path class="cls-22" d="M2583,1779.881q-36.11,1.063-70.062-.791-33.961-1.875-68.98-1.875l-.541-.521q-1.063-12.727-1.854-31.834a163.971,163.971,0,0,1,1.854-34.5q2.664-2.124,10.083-2.645,7.437-.54,16.708-.542,9.289,0,19.375-.25a78.4,78.4,0,0,0,18.063-2.4q-.547-19.641.521-37.687a176.776,176.776,0,0,0-1.584-36.084v-.521q-16.461-.538-32.916-.541-16.438,0-32.354-1.063l-.542-.521a83.053,83.053,0,0,1-1.854-30.52,214.356,214.356,0,0,0,1.333-31.563l.521-.542h1.583q17.516-1.578,35.021-1.583t35.021.271q17.515.25,34.771-.542a202.044,202.044,0,0,0,34.229-4.521v-.52q0-18.579,1.312-37.688a178.712,178.712,0,0,0-1.312-37.667q0-.538-10.625-1.062-10.61-.516-28.125-.521-17.5,0-40.333.521-22.814.524-47.23,1.062-24.4.524-48.541,1.334t-44.834,1.854q-2.671,45.625-3.208,90.75t0,90.208q.539,45.109,1.6,90.479t1.063,91.542a935.439,935.439,0,0,0,107.458,2.375q56-1.851,110.125-1.312a149.11,149.11,0,0,0,4.771-34.23q.516-18.312-.521-35.291Z"/><path class="cls-22" d="M2817.543,1854.694q9.017,0,12.729-1.063a37.263,37.263,0,0,0,4.792-1.583v-10.6q0-10.626-.271-21.229-.273-10.626-.271-21.23,0-14.851.271-29.187t.271-29.729v-45.625q0-22.814-.542-45.1V1478.465a173.528,173.528,0,0,0-35.021-3.188,219.454,219.454,0,0,0-38.208,3.188q-.524,13.274-.792,24.687-.273,11.4-.27,22.542,0,19.109.791,37.416.813,18.3.813,39.521a168.122,168.122,0,0,1-1.063,18.584q-1.062,9.546-2.666,10.6-.524,0-3.709-6.1t-7.708-14.855q-4.5-8.749-9.813-19.625-5.3-10.89-10.083-20.708t-8.479-17.229q-3.711-7.437-4.771-10.1-4.8-11.14-8.25-18.292t-6.354-13q-2.922-5.852-6.1-12.208-3.187-6.375-6.9-15.938,0-1.062-5.583-2.1-5.564-1.062-13-1.854-7.422-.813-14.855-1.063-7.421-.265-10.6-.27-6.375,0-12.479.541a102.148,102.148,0,0,0-11.4,1.584q-2.671,33.96-3.729,69.791-1.062,35.813-1.062,72.417,0,49.875.791,95.521.813,45.648.813,96.041v37.167a208.284,208.284,0,0,1,25.208,1.583,213.147,213.147,0,0,0,25.729,1.584q5.829,0,11.667-.542a67.873,67.873,0,0,0,11.687-2.1q-.546-9.015-.541-20.417v-23.625q0-22.289.271-46.166t.791-43.5q.54-19.641,1.334-32.375.789-12.75,1.333-12.75,1.062,0,2.917,5.041t3.979,10.875l5.312,15.917q12.188,33.962,29.438,70.854,17.25,36.874,34.771,76.146,10.6,0,24.395,1.312Q2806.94,1854.689,2817.543,1854.694Z"/><path class="cls-22" d="M2924.735,1850.985q5.851,0,9.833.271t10.333.271h3.729q0-15.39.521-32.1.54-16.726,1.063-31.583-7.962,0-16.459-.792-8.484-.813-17.25-1.333a135.3,135.3,0,0,0-16.708,0,44.539,44.539,0,0,0-14.333,3.187v.521q0,7.437-1.063,18.062-1.047,10.61-1.583,20.417t-.521,16.729q0,6.9,1.583,6.9l39.792-.542ZM2882.3,1479.527q-2.125,36.086-2.4,71.646t.25,70.562q.54,35.024.813,70.063.266,35.024-.271,70.042h.542q15.375-.54,35-.792a334.365,334.365,0,0,0,33.458-1.875q-3.187-67.914-2.4-140.354t1.854-140.354q-14.859-4.251-33.166-2.125t-32.105,3.187Z"/><path class="cls-23" d="M119.639,193.583q-17.773.523-34.5-.4t-33.979-.917L50.889,192q-.524-6.265-.917-15.667a81.956,81.956,0,0,1,.917-17q1.313-1.038,4.958-1.291,3.664-.266,8.25-.271t9.542-.125a39.044,39.044,0,0,0,8.9-1.188q-.274-9.663.25-18.541a87.134,87.134,0,0,0-.792-17.792v-.271q-8.086-.249-16.188-.25t-15.958-.521l-.25-.27a40.675,40.675,0,0,1-.917-15.021,104.412,104.412,0,0,0,.646-15.563l.271-.25h.771q8.625-.789,17.25-.791t17.25.145q8.64.126,17.125-.27a100.19,100.19,0,0,0,16.875-2.23v-.25q0-9.163.646-18.562a89.292,89.292,0,0,0-.646-18.563c0-.177-1.745-.354-5.229-.52s-8.1-.271-13.854-.271-12.375.093-19.875.271-15.245.343-23.271.52-15.99.386-23.917.646-15.292.573-22.083.917Q9.327,71.5,9.055,93.729q-.249,22.211,0,44.438.265,22.21.792,44.562t.542,45.084A457.388,457.388,0,0,0,63.305,229q27.579-.913,54.25-.667a73.469,73.469,0,0,0,2.334-16.854q.266-9.015-.25-17.375Z"/><path class="cls-23" d="M176.088,45.354q-11.749.273-17.9-.125t-10.854-.646q-1.836,0-5.625-.395a20.415,20.415,0,0,0-5.083-.125v.52A398.865,398.865,0,0,0,134.4,89.417q.125,22.859.77,46.25.665,23.4.917,47.187t-1.562,47.313q2.625-.774,9.666-.4,7.064.39,14.771.646,7.727.266,14.4-.125,6.664-.375,8.75-2.479-1.312-22.2-1.583-44.938-.25-22.75.145-45.625t1.042-45.6q.641-22.751.646-45.229V45.354Z"/><path class="cls-23" d="M303.128,230.438a26.17,26.17,0,0,0,6.271-.521,16.73,16.73,0,0,0,2.354-.792V223.9q0-5.227-.146-10.458-.125-5.227-.125-10.459,0-7.312.125-14.375.141-7.062.146-14.625V151.5q0-11.25-.271-22.229V45.1a85.8,85.8,0,0,0-17.25-1.562A108.688,108.688,0,0,0,275.42,45.1q-.273,6.547-.4,12.167t-.125,11.1q0,9.4.375,18.417t.4,19.479a83.965,83.965,0,0,1-.521,9.146q-.524,4.71-1.292,5.229-.273,0-1.833-3-1.563-3.016-3.792-7.333t-4.854-9.667q-2.608-5.352-4.958-10.188t-4.188-8.5Q252.42,78.3,251.9,77q-2.36-5.5-4.062-9.021-1.687-3.538-3.125-6.416t-3.021-6q-1.563-3.141-3.4-7.855,0-.514-2.75-1.041-2.734-.516-6.4-.917t-7.333-.521q-3.649-.124-5.209-.125c-2.1,0-4.145.094-6.145.271a51.33,51.33,0,0,0-5.625.771Q203.54,62.88,203,80.521t-.521,35.687q0,24.563.4,47.042t.4,47.313v18.291a101.518,101.518,0,0,1,12.417.792,103.312,103.312,0,0,0,12.666.792c1.927,0,3.855-.094,5.771-.271a32.271,32.271,0,0,0,5.75-1.042q-.273-4.437-.271-10.062V207.438q0-10.977.125-22.75.141-11.766.4-21.438t.646-15.937q.39-6.267.667-6.271.514,0,1.437,2.479t1.959,5.354l2.6,7.833q6.015,16.736,14.521,34.917t17.125,37.5q5.226,0,12.02.646Q297.9,230.436,303.128,230.438Z"/><path class="cls-23" d="M414.729,160.9c.526,0,.792-.172.792-.521a88.208,88.208,0,0,1-.4-11.229q.125-6.54.375-12.938.266-6.414.146-11.645t-.917-7.063q-2.874.273-7.062.542-4.171.249-8.625.25-4.438,0-9.021-.125a69.026,69.026,0,0,1-8.229-.667.781.781,0,0,1-.521-.25,25.411,25.411,0,0,1-2.875-10.458,27.456,27.456,0,0,1,2.354-13.063q8.1-.789,17.375-1.312,9.289-.516,18.563-.917t18.041-.917q8.751-.514,15.813-1.041.266-3.391.271-8.5V70.333q0-5.625-.146-10.854-.126-5.226-.125-8.625a126.6,126.6,0,0,0-17.521-2.875q-10.188-1.039-21.688-1.166t-23.4.25q-11.9.4-22.48,1.187-10.586.774-18.958,1.563-8.359.773-12.792,1.562v37.25q0,16.609-.145,30.979-.126,14.376-.125,27.313t-.146,25.75q-.126,12.811-.125,26.541v29.4l.271.25q1.038.54,6.4.792,5.376.266,12.417.271,7.062,0,14.25-.271,7.188-.25,12.417-.792.266-14.891.521-31.229t1.583-32.812h.25q7.829-1.29,16.583-1.938Q406.62,162.21,414.729,160.9Z"/><path class="cls-23" d="M546.2,137.375q-1.045-4.437-2.875-12.021t-3.937-16.729q-2.087-9.141-4.313-19.083-2.211-9.937-4.166-18.688-1.962-8.766-3.667-15.687-1.687-6.937-2.479-10.334-8.625.8-13.979.938-5.36.124-8.771.125h-5.479a28.917,28.917,0,0,0-3.917.25q-6.273,20.922-11.5,42.083t-9.687,40.792Q466.992,148.63,463.722,166q-3.249,17.375-5.6,30.708t-3.667,21.709q-1.312,8.359-1.833,10.187a.781.781,0,0,0,.521.25q17.766-.249,26.125.271,8.374.516,10.479,0a.51.51,0,0,0,.375-.125.569.569,0,0,1,.417-.146,41.962,41.962,0,0,0,3.646-10.187q1.313-5.751,2.479-11.9,1.186-6.141,2.354-11.75a50.543,50.543,0,0,1,3.021-9.813q2.874,0,4.562-.125c1.136-.083,2.188-.125,3.146-.125h3.25a37.717,37.717,0,0,1,5.229.521,63.613,63.613,0,0,1,3.4,9.417q1.578,5.484,3.021,11.5,1.437,6,2.875,11.75a93.73,93.73,0,0,0,3,9.937h.271a101.96,101.96,0,0,0,17.771,2.209,72.86,72.86,0,0,0,17.25-1.167v-.271Zm-26.666,17q-4.962,0-9.938.125-4.96.125-9.4-.125,1.828-13.327,3.271-24.833t2.6-19.084q1.188-7.578,2.625-10.062,1.438-2.5,2.875,1.958,1.438,4.439,3.4,17T519.535,154.375Z"/><path class="cls-23" d="M615.47,87.458a11.172,11.172,0,0,1,5.875-2.875q3.789-.789,7.188-1.312,7.578-.266,11.1,3.125a17.527,17.527,0,0,1,4.833,8.771,53.278,53.278,0,0,1,1.438,11.625,86.359,86.359,0,0,0,.917,11.25,178.16,178.16,0,0,0,19.208,2.479,67.317,67.317,0,0,0,18.958-1.438,55.394,55.394,0,0,0,3.125-23.52,58.52,58.52,0,0,0-6-21.313,59.315,59.315,0,0,0-13.333-17.375A69.421,69.421,0,0,0,650.1,44.729a64.976,64.976,0,0,0-22.1-5.375,62.667,62.667,0,0,0-23.771,3.125,63.01,63.01,0,0,0-7.062,2.5,31.89,31.89,0,0,0-6.271,3.521,45.762,45.762,0,0,0-8.5,10.188,63.78,63.78,0,0,0-5.875,12.562,48.639,48.639,0,0,0-2.479,8.5,28.375,28.375,0,0,0-.4,9q-.25,21.188-.4,37.271-.124,16.062,0,28.75.141,12.672.4,22.875t.792,19.583q1.038,10.984,6.916,18.313a40.457,40.457,0,0,0,14.5,11.375,60.218,60.218,0,0,0,18.563,5.208A75.106,75.106,0,0,0,633.762,232a50.5,50.5,0,0,0,25.75-7.187,57.6,57.6,0,0,0,18.417-17.646A60,60,0,0,0,687.075,183a57.5,57.5,0,0,0-2.334-27.062,37.945,37.945,0,0,0-8.25-1.292q-4.561-.266-9.271-.271t-9.291.271a42.182,42.182,0,0,1-8.229-.271,51.1,51.1,0,0,0-.917,13.188A25.514,25.514,0,0,1,646.3,180.25a15.253,15.253,0,0,1-7.709,7.458,21.889,21.889,0,0,1-10.854,1.688,16.13,16.13,0,0,1-10.854-9.292,47.587,47.587,0,0,1-4.042-14.75q-.8-9.164-.791-21.583t.271-23.917q.265-11.5.645-19.854.391-8.374.917-9.146a11.963,11.963,0,0,0,.646-1.687A4.151,4.151,0,0,1,615.47,87.458Z"/><path class="cls-23" d="M808.1,44.583q-3.923-.266-8.771-.395a93.661,93.661,0,0,0-9.792.27q-4.961.375-9.542,1.167a54.446,54.446,0,0,0-7.708,1.833q.765,18.813.646,34.5t-1.688,33.73h-.27q-6.548.522-14.125,1.166a44.226,44.226,0,0,1-14.105-.916h-.27a183.1,183.1,0,0,1-3.125-33.709A271.108,271.108,0,0,0,737,47.188a28.7,28.7,0,0,0-7.854-1.042q-4.171,0-8.479.271-4.312.249-8.625.521a32.658,32.658,0,0,1-8.229-.521h-.792v.25q-.273,13.335-.4,29.937t.125,34.521q.265,17.9.667,35.667t.917,33.583q.515,15.813,1.166,28.5t1.188,19.979q2.328-1.289,6.917-1.021,4.578.251,9.791.771t10.459.521a16.558,16.558,0,0,0,8.375-1.833,119.746,119.746,0,0,0,1.437-16.854q.125-8.5-.146-17.375-.249-8.892-.375-17.771t.646-18.042a64.472,64.472,0,0,1,15.167-1.833,90.43,90.43,0,0,1,15.166,1.291l.25.271q1.039,8.376,1.292,17.521t.4,18.292q.141,9.148.542,18.437a167.616,167.616,0,0,0,1.687,17.9h.271q3.141-.265,7.708-.271h9.417q4.828,0,9.917-.25a80.679,80.679,0,0,0,9.562-1.041Z"/><path class="cls-23" d="M944.008,193.583q-17.774.523-34.5-.4t-33.98-.917l-.27-.271q-.524-6.265-.917-15.667a81.956,81.956,0,0,1,.917-17q1.313-1.038,4.958-1.291,3.664-.266,8.25-.271t9.542-.125a39.035,39.035,0,0,0,8.895-1.188q-.273-9.663.25-18.541a87.062,87.062,0,0,0-.791-17.792v-.271q-8.087-.249-16.188-.25t-15.958-.521l-.25-.27a40.675,40.675,0,0,1-.917-15.021,104.412,104.412,0,0,0,.646-15.563l.271-.25h.771q8.625-.789,17.25-.791t17.25.145q8.64.126,17.125-.27a100.217,100.217,0,0,0,16.875-2.23v-.25q0-9.163.646-18.562a89.292,89.292,0,0,0-.646-18.563c0-.177-1.745-.354-5.229-.52s-8.105-.271-13.855-.271-12.375.093-19.875.271-15.244.343-23.27.52-15.99.386-23.917.646-15.292.573-22.083.917Q833.7,71.5,833.424,93.729q-.249,22.211,0,44.438.265,22.21.792,44.562t.542,45.084A457.388,457.388,0,0,0,887.674,229q27.579-.913,54.25-.667a73.469,73.469,0,0,0,2.334-16.854q.265-9.015-.25-17.375Z"/><path class="cls-23" d="M1120.961,146q1.313-25.078.25-49.521-1.047-24.453.02-49.541-4.187,0-10.083.125-5.875.124-11.5.395-5.608.251-10.458.521a41.869,41.869,0,0,1-6.646,0,40.214,40.214,0,0,0-4.854,9.938q-2.484,6.8-4.438,13.729t-3.666,12.146q-1.687,5.234-2.48,4.958a2.274,2.274,0,0,1-1.562-.771,40.345,40.345,0,0,1-4.042-8.625q-1.961-5.5-4.062-11.5T1053,56.479a30.361,30.361,0,0,0-4.708-7.979h-.271q-4.437.273-9.146.146t-9.416-.271q-4.687-.141-9.146.125a33.964,33.964,0,0,0-7.834,1.313q-.249,35.546-.395,62.208-.126,26.671-.271,46.021-.126,19.335-.125,32.4t.125,21.041q.141,7.984.4,11.9a35.665,35.665,0,0,0,.541,4.958c.167.532.422.792.771.792q8.375,0,18.292.25a101.118,101.118,0,0,0,18.312-1.042q-1.561-24.312-2.229-49.4a449.387,449.387,0,0,1,1.438-49.667s.3.875.916,2.625,1.344,3.911,2.209,6.521,1.921,5.489,3.145,8.625,2.4,6.1,3.521,8.9a48.079,48.079,0,0,0,3.4,6.937c1.136,1.823,2.146,2.729,3.021,2.729q1.04,0,3.125-4.958,2.1-4.977,4.458-11.5,2.352-6.54,4.709-12.688a53.17,53.17,0,0,1,4.187-9.02q1.289,10.983,1.938,24.062.663,13.062.791,26.667.141,13.585.271,26.646t.646,24.312q3.141,0,7.458-.125,4.313-.141,9.021-.146h9.4a63.479,63.479,0,0,1,8.625.542Z"/><path class="cls-23" d="M1246.158,73.063a37.692,37.692,0,0,0-10.708-15.938,55.821,55.821,0,0,0-17.125-8.75,78.34,78.34,0,0,0-19.6-3.542,83,83,0,0,0-20.125,1.438,75.728,75.728,0,0,0-18.688,6.146,32.838,32.838,0,0,0-6.021,4.708,47.321,47.321,0,0,0-10.854,21.042,117.263,117.263,0,0,0-3,23.666,379.936,379.936,0,0,0-.4,41.167q.915,20.523,1.709,40.9a122.733,122.733,0,0,0,1.416,15.042,41.792,41.792,0,0,0,4.855,13.979,24.879,24.879,0,0,0,6,8.5,32.493,32.493,0,0,0,8.229,5.354,40.721,40.721,0,0,0,9.687,3q5.1.914,10.584,1.437a109.429,109.429,0,0,0,15.02,0,72.466,72.466,0,0,0,14.771-2.6,69.68,69.68,0,0,0,15.292-5.875,32.789,32.789,0,0,0,11.646-10.062,59.127,59.127,0,0,0,7.041-16.854,99.044,99.044,0,0,0,2.9-18.438l.771-8.625q1.039-13.6.771-26.667-.251-13.062.542-26.916.249-6.54.125-12.938-.126-6.414-.646-12.958-.523-4.164-1.438-8.208A39.9,39.9,0,0,0,1246.158,73.063ZM1218.2,149.4c0,.349-.052,1.833-.146,4.458s-.219,5.662-.4,9.146a69.041,69.041,0,0,0-.4,8.75,36.891,36.891,0,0,1-.125,5.625,11.454,11.454,0,0,1-1.312,4.313,41.854,41.854,0,0,1-3.4,5.083,22.1,22.1,0,0,1-9.667,6.417,29.089,29.089,0,0,1-11.5,1.562,24.494,24.494,0,0,1-10.729-3.271,18.831,18.831,0,0,1-7.562-8.1,76.3,76.3,0,0,1-3.146-18.167q-.524-9.539-1.833-18.687-.524-10.977-.125-21.958a122.938,122.938,0,0,1,2.479-20.917,34.039,34.039,0,0,1,12.291-18.021,25.779,25.779,0,0,1,9.667-4.437,17.438,17.438,0,0,1,10.729.77,21.8,21.8,0,0,1,9.521,8.9,30.1,30.1,0,0,1,4.063,13.334q.266,4.437.645,9.541.391,5.087.4,5.354l.542,17.771ZM1186.3,30.979v-.521q0-1.827.25-6,.265-4.186.521-8.75t.521-7.979c.177-2.26.271-3.484.271-3.666a20.121,20.121,0,0,0-5.625-1.167,79.1,79.1,0,0,0-8.105-.4,66.424,66.424,0,0,0-8.375.521,34.993,34.993,0,0,0-6.395,1.312c0,1.042-.042,2.7-.125,4.959s-.178,4.7-.271,7.312-.084,5.182,0,7.709a41.117,41.117,0,0,0,.666,6.416h.792l25.354.25Zm45.479,0v-.521q0-1.827.25-6,.266-4.186.521-8.75t.521-7.979c.177-2.26.271-3.484.271-3.666a20.121,20.121,0,0,0-5.625-1.167,78.7,78.7,0,0,0-8.1-.4,65.916,65.916,0,0,0-8.355.521,34.993,34.993,0,0,0-6.395,1.312c0,1.042-.053,2.7-.146,4.959s-.167,4.7-.25,7.312-.084,5.182,0,7.709a40.179,40.179,0,0,0,.646,6.416h.791l25.354.25Z"/><path class="cls-23" d="M1321.954,138.167c-.349.166-.521.25-.521.25a.24.24,0,0,0-.271.271v.25a74.644,74.644,0,0,1,.521,7.854q0,3.124-.125,6.146c-.083,2-.083,4.052,0,6.145s.3,4.521.646,7.313a12.4,12.4,0,0,0,3.792.646q2.5.124,5.5,0t5.75-.25a20.776,20.776,0,0,1,4.312.125c.526.166.834.953.917,2.354a44.394,44.394,0,0,1,0,4.708,46.826,46.826,0,0,1-.521,5.084c-.266,1.656-.489,2.833-.667,3.541a14.016,14.016,0,0,1-3.145,5.875,15.207,15.207,0,0,1-4.959,3.521,50.156,50.156,0,0,1-7.958,2.1,26.52,26.52,0,0,1-8.229.25,16.857,16.857,0,0,1-6.021-2.354,18.472,18.472,0,0,1-6.542-10.708,93.761,93.761,0,0,1-2.083-12.542q-.8-9.687-1.063-20.4-.249-10.7.271-20.771t1.688-18.958a103.662,103.662,0,0,1,3.021-15.167,30.725,30.725,0,0,1,1.437-4.312,8.328,8.328,0,0,1,8.75-5.875q4.188,0,8.625.25a10.044,10.044,0,0,1,6.813,2.5,29.158,29.158,0,0,1,5.083,5.75,33.368,33.368,0,0,1,3.667,7.042q1.437,3.8,2.229,6.416,3.913.523,6.791.792c1.917.167,3.782.25,5.605.25s3.666-.042,5.5-.125,4.052-.146,6.666-.146q4.188-.251,6.021-.25c1.219,0,2.005-.26,2.354-.792l.25-1.562q1.829-15.937-2.875-27.563a42.989,42.989,0,0,0-14.125-18.708,55.9,55.9,0,0,0-22.479-9.792,82.116,82.116,0,0,0-27.437-.916,85.152,85.152,0,0,0-13.605,3.146,33.957,33.957,0,0,0-11.75,6.52,29.283,29.283,0,0,0-10.854,13.334,75.267,75.267,0,0,0-4.562,16.729q-1.312,8.359-1.834,17.125-.524,8.749-.791,17.1-.251,9.687-.125,17.146.124,7.437.521,14.1t.916,13.458q.516,6.8,1.313,15.167.516,5.235,1.437,10.333t1.688,7.959a58.9,58.9,0,0,0,8.625,18.833q5.5,7.563,15.958,12.021a48.178,48.178,0,0,0,13.188,3.375,71.014,71.014,0,0,0,14.25.146,128.578,128.578,0,0,0,14.375-2.084q7.062-1.437,13.6-3.27a43.98,43.98,0,0,0,16.729-10.709q6.789-7.062,8.1-20.4a138.149,138.149,0,0,0,2.083-29.666q-.524-15.562-2.083-29.417l-.271-.271h-.521q-2.609,0-10.062-.646t-16.083-.9q-8.625-.267-16.334.125Q1325.348,136.063,1321.954,138.167Z"/><path class="cls-23" d="M1503.612,205.333a27.914,27.914,0,0,1-.146-4.833q.141-2.75.417-5.354.249-2.875.25-5.75a61.629,61.629,0,0,1-7.459.125q-5.359-.124-12.291-.375t-14.625-.667q-7.712-.39-14.5-.646t-11.9-.4a26.525,26.525,0,0,0-6.938.4v-.27q.266-16.728.125-34.625-.125-17.914-.4-35.938-.249-18.039-.375-35.937-.125-17.914.4-34.917a37.441,37.441,0,0,0-9.687-2.333,93.9,93.9,0,0,0-12.271-.792,101.892,101.892,0,0,0-11.771.646,34.639,34.639,0,0,0-8.1,1.687q.266,18.314.521,33.354.265,15.024.521,28.355.265,13.313.27,26.125t-.125,26.541q-.125,13.711-.666,29.542-.524,15.813-1.292,35.417V229.4q31.625.516,50.563.521t29.812-.271q10.853-.25,15.417-.521a51.76,51.76,0,0,1,7.458,0q2.876,0,4.438-.125,1.562-.141,2.208-2.354a26.987,26.987,0,0,0,.667-7.063Q1504.133,214.756,1503.612,205.333Z"/><path class="cls-23" d="M1556.4,45.354q-11.749.273-17.9-.125t-10.854-.646q-1.836,0-5.625-.395a20.415,20.415,0,0,0-5.083-.125v.52a398.865,398.865,0,0,0-2.229,44.834q.124,22.859.77,46.25.665,23.4.917,47.187t-1.562,47.313q2.625-.774,9.666-.4,7.064.39,14.771.646,7.726.266,14.4-.125,6.664-.375,8.75-2.479-1.312-22.2-1.583-44.938-.251-22.75.145-45.625t1.042-45.6q.641-22.751.646-45.229V45.354Z"/><path class="cls-23" d="M1623.061,87.458a11.172,11.172,0,0,1,5.875-2.875q3.789-.789,7.188-1.312,7.578-.266,11.1,3.125a17.527,17.527,0,0,1,4.833,8.771,53.278,53.278,0,0,1,1.438,11.625,86.359,86.359,0,0,0,.917,11.25,178.16,178.16,0,0,0,19.208,2.479,67.317,67.317,0,0,0,18.958-1.438,55.394,55.394,0,0,0,3.125-23.52,58.52,58.52,0,0,0-6-21.313,59.315,59.315,0,0,0-13.333-17.375,69.421,69.421,0,0,0-18.688-12.146,64.976,64.976,0,0,0-22.1-5.375,62.667,62.667,0,0,0-23.771,3.125,62.939,62.939,0,0,0-7.062,2.5,31.89,31.89,0,0,0-6.271,3.521,45.762,45.762,0,0,0-8.5,10.188A63.78,63.78,0,0,0,1584.1,71.25a48.639,48.639,0,0,0-2.479,8.5,28.375,28.375,0,0,0-.4,9q-.251,21.188-.4,37.271-.125,16.062,0,28.75.141,12.672.4,22.875t.792,19.583q1.038,10.984,6.916,18.313a40.457,40.457,0,0,0,14.5,11.375A60.218,60.218,0,0,0,1622,232.125a75.106,75.106,0,0,0,19.354-.125,50.5,50.5,0,0,0,25.75-7.187,57.6,57.6,0,0,0,18.417-17.646A60,60,0,0,0,1694.666,183a57.5,57.5,0,0,0-2.334-27.062,37.945,37.945,0,0,0-8.25-1.292q-4.562-.266-9.271-.271t-9.291.271a42.182,42.182,0,0,1-8.229-.271,51.1,51.1,0,0,0-.917,13.188,25.514,25.514,0,0,1-2.479,12.687,15.253,15.253,0,0,1-7.709,7.458,21.889,21.889,0,0,1-10.854,1.688,16.13,16.13,0,0,1-10.854-9.292,47.587,47.587,0,0,1-4.042-14.75q-.8-9.164-.791-21.583t.271-23.917q.266-11.5.645-19.854.391-8.374.917-9.146a11.963,11.963,0,0,0,.646-1.687A4.151,4.151,0,0,1,1623.061,87.458Z"/><path class="cls-23" d="M1815.7,44.583q-3.922-.266-8.771-.395a93.661,93.661,0,0,0-9.792.27q-4.961.375-9.542,1.167a54.446,54.446,0,0,0-7.708,1.833q.766,18.813.646,34.5t-1.688,33.73h-.27q-6.547.522-14.125,1.166a44.226,44.226,0,0,1-14.105-.916h-.27a183.1,183.1,0,0,1-3.125-33.709,271.108,271.108,0,0,0-2.355-35.041,28.692,28.692,0,0,0-7.854-1.042q-4.172,0-8.479.271-4.312.249-8.625.521a32.658,32.658,0,0,1-8.229-.521h-.792v.25q-.273,13.335-.4,29.937t.125,34.521q.267,17.9.667,35.667t.917,33.583q.516,15.813,1.166,28.5t1.188,19.979q2.328-1.289,6.917-1.021,4.578.251,9.791.771t10.459.521a16.558,16.558,0,0,0,8.375-1.833,119.746,119.746,0,0,0,1.437-16.854q.124-8.5-.146-17.375-.249-8.892-.375-17.771t.646-18.042a64.479,64.479,0,0,1,15.167-1.833,90.43,90.43,0,0,1,15.166,1.291l.25.271q1.04,8.376,1.292,17.521t.4,18.292q.141,9.148.542,18.437a167.875,167.875,0,0,0,1.687,17.9h.271q3.141-.265,7.708-.271h9.417q4.829,0,9.917-.25a80.679,80.679,0,0,0,9.562-1.041Z"/><path class="cls-23" d="M1906.911,135.292a215.391,215.391,0,0,1,10.979-21.959q6.265-10.975,12.667-21.958t12.021-21.958a121.655,121.655,0,0,0,8.771-21.959,84.855,84.855,0,0,0-17.792-.791,150.822,150.822,0,0,1-17.771,0,174.916,174.916,0,0,0-9.792,15.687q-4.312,7.836-8.375,15.688-4.045,7.836-8.5,15.416A135.555,135.555,0,0,1,1879.2,108.1a5.93,5.93,0,0,0-.917,1.188c-.265.432-.4.557-.4.375q-.524-14.891-.271-31.354t-.25-31.375q-8.374,0-17.395-.4-9-.392-17.625-.125.249,45.734-1.188,91.083t.667,90.313a68.038,68.038,0,0,0,8.479,1.312,105.124,105.124,0,0,0,10.583.521q5.5,0,10.459-.4a44.12,44.12,0,0,0,8.625-1.437q0-7.312-.125-15.938t-.4-17.5q-.25-8.89-.4-17.646-.125-8.766.146-16.354,4.164,7.313,8.354,16.479,4.188,9.148,8.5,18.563,4.313,9.4,9.021,18.166a80.759,80.759,0,0,0,10.187,15.021q8.376.25,18.167.771a67.533,67.533,0,0,0,18.167-1.292Z"/><path class="cls-23" d="M2071.569,193.583q-17.774.523-34.5-.4t-33.979-.917l-.271-.271q-.523-6.265-.917-15.667a81.956,81.956,0,0,1,.917-17q1.313-1.038,4.958-1.291,3.664-.266,8.25-.271t9.542-.125a39.044,39.044,0,0,0,8.9-1.188q-.274-9.663.25-18.541a87.134,87.134,0,0,0-.792-17.792v-.271q-8.087-.249-16.188-.25t-15.958-.521l-.25-.27a40.675,40.675,0,0,1-.917-15.021,104.412,104.412,0,0,0,.646-15.563l.271-.25h.771q8.625-.789,17.25-.791t17.25.145q8.64.126,17.125-.27a100.19,100.19,0,0,0,16.875-2.23v-.25q0-9.163.646-18.562a89.292,89.292,0,0,0-.646-18.563c0-.177-1.745-.354-5.229-.52s-8.1-.271-13.854-.271-12.375.093-19.875.271-15.245.343-23.271.52-15.99.386-23.917.646-15.292.573-22.083.917q-1.312,22.484-1.584,44.708-.249,22.211,0,44.438.266,22.21.792,44.562t.542,45.084A457.388,457.388,0,0,0,2015.235,229q27.579-.913,54.25-.667a73.469,73.469,0,0,0,2.334-16.854q.265-9.015-.25-17.375Z"/><path class="cls-23" d="M2128.018,45.354q-11.749.273-17.9-.125t-10.854-.646q-1.836,0-5.625-.395a20.415,20.415,0,0,0-5.083-.125v.52a399.1,399.1,0,0,0-2.23,44.834q.126,22.859.771,46.25.664,23.4.917,47.187t-1.563,47.313q2.625-.774,9.667-.4,7.062.39,14.771.646,7.726.266,14.4-.125,6.663-.375,8.75-2.479-1.312-22.2-1.584-44.938-.249-22.75.146-45.625t1.042-45.6q.641-22.751.646-45.229V45.354Z"/><path class="cls-23" d="M2257.141,47.458a499.944,499.944,0,0,0-55.291-2.75q-28.36.126-55.021.4c0,.167.041.25.125.25s.146.094.146.271q-.523,6.273-.521,13.083t.125,12.667q.124,5.876.521,10.063a19.236,19.236,0,0,0,.916,5.229,19.562,19.562,0,0,0,5.479.521q3.938,0,8.646.145,4.7.126,9.4.521a21.511,21.511,0,0,1,7.854,1.938l.25.271q1.578,36.609,1.959,62.479t.27,42.479q-.124,16.586-.395,24.958a75.3,75.3,0,0,0,0,9.417,61.646,61.646,0,0,1,10.187-.792h11.125q5.625,0,11.229-.125a75.79,75.79,0,0,0,10.334-.916v-.521q-.523-28.5-.792-49.542-.251-21.039-.521-36.062-.25-15.04-.4-24.584-.125-9.538-.125-15.416t.125-8.625a32.545,32.545,0,0,1,.4-4.063.51.51,0,0,1,.125-.375.543.543,0,0,0,.146-.4h.771q12.289-.516,19.6-.791a51.07,51.07,0,0,1,12.292.791,163.164,163.164,0,0,0,1.437-20.646Q2257.662,56.083,2257.141,47.458Z"/><path class="cls-23" d="M2381.034,193.583q-17.774.523-34.5-.4t-33.98-.917l-.27-.271q-.524-6.265-.917-15.667a81.956,81.956,0,0,1,.917-17q1.313-1.038,4.958-1.291,3.664-.266,8.25-.271t9.542-.125a39.035,39.035,0,0,0,8.895-1.188q-.273-9.663.25-18.541a87.062,87.062,0,0,0-.791-17.792v-.271q-8.087-.249-16.188-.25t-15.958-.521l-.25-.27a40.675,40.675,0,0,1-.917-15.021,104.412,104.412,0,0,0,.646-15.563l.271-.25h.771q8.625-.789,17.25-.791t17.25.145q8.64.126,17.125-.27a100.217,100.217,0,0,0,16.875-2.23v-.25q0-9.163.646-18.562a89.292,89.292,0,0,0-.646-18.563c0-.177-1.745-.354-5.229-.52s-8.105-.271-13.855-.271-12.375.093-19.875.271-15.244.343-23.27.52-15.99.386-23.917.646-15.292.573-22.083.917q-1.312,22.484-1.584,44.708-.249,22.211,0,44.438.266,22.21.792,44.562t.542,45.084A457.388,457.388,0,0,0,2324.7,229q27.579-.913,54.25-.667a73.469,73.469,0,0,0,2.334-16.854q.265-9.015-.25-17.375Z"/><path class="cls-23" d="M2496.566,230.438a26.175,26.175,0,0,0,6.271-.521,16.73,16.73,0,0,0,2.354-.792V223.9q0-5.227-.146-10.458-.124-5.227-.125-10.459,0-7.312.125-14.375.141-7.062.146-14.625V151.5q0-11.25-.271-22.229V45.1a85.8,85.8,0,0,0-17.25-1.562,108.688,108.688,0,0,0-18.812,1.562q-.274,6.547-.4,12.167t-.125,11.1q0,9.4.375,18.417.39,9.023.4,19.479a83.965,83.965,0,0,1-.521,9.146q-.524,4.71-1.292,5.229-.273,0-1.833-3-1.563-3.016-3.792-7.333t-4.854-9.667q-2.608-5.352-4.958-10.188t-4.188-8.5q-1.812-3.663-2.333-4.958-2.36-5.5-4.063-9.021-1.687-3.538-3.125-6.416t-3.02-6q-1.563-3.141-3.4-7.855,0-.514-2.75-1.041-2.735-.516-6.4-.917t-7.333-.521q-3.649-.124-5.209-.125c-2.1,0-4.146.094-6.146.271a51.33,51.33,0,0,0-5.625.771q-1.3,16.734-1.833,34.375t-.521,35.687q0,24.563.4,47.042t.4,47.313v18.291a101.518,101.518,0,0,1,12.417.792,103.312,103.312,0,0,0,12.666.792c1.927,0,3.854-.094,5.771-.271a32.287,32.287,0,0,0,5.75-1.042q-.273-4.437-.271-10.062V207.438q0-10.977.125-22.75.141-11.766.4-21.438t.646-15.937q.39-6.267.667-6.271.515,0,1.437,2.479t1.958,5.354l2.605,7.833q6.015,16.736,14.52,34.917t17.125,37.5q5.228,0,12.021.646Q2491.334,230.436,2496.566,230.438Z"/><path class="cls-23" d="M2554.063,234.6c.167-.864.38-1.864.646-3a12.84,12.84,0,0,0,.4-2.75.509.509,0,0,1,.125-.375.546.546,0,0,0,.145-.4h.521l1.042-30.062h-.271q-9.148-.516-16.854-1.438a34.993,34.993,0,0,0-14.5,1.167h-.271v.271q-.523,10.71-.646,16.6-.125,5.875-.271,8.75-.124,2.875-.125,3.667v1.041a1.118,1.118,0,0,0,.792.25l12.271,1.063q-.524,3.641-1.438,7.833t-1.958,7.979q-1.047,3.789-1.708,6.4-.649,2.625-.125,3.146,7.578.25,12.146.125t5.895.4q.516-2.625,1.042-5.1c.344-1.657.693-3.354,1.042-5.1Z"/><path class="cls-22" d="M255.035,416.284q-6.562-3.828-16.959-4.917a141.816,141.816,0,0,0-21.875-.542q-11.484.548-22.687,1.917t-18.313,1.9q-1.648,63.421-1.916,131.208t-3,133.417q-2.734,12.563-12.021,19.667a35.739,35.739,0,0,1-20.229,7.666,36.988,36.988,0,0,1-21.063-5.458q-10.11-6.015-13.937-19.146a2136.023,2136.023,0,0,1-4.917-268.437v-.542a103.264,103.264,0,0,0-18.042-3q-9.835-.828-20.229-.833-10.376,0-20.5.541t-18.312.542h-.542l.542.562Q22.112,483,20.472,556.242q-1.625,73.25-1.625,145.417,1.078,25.172,14.479,42.937A100.628,100.628,0,0,0,66.68,773.013a143.66,143.66,0,0,0,44.563,14.75,182.939,182.939,0,0,0,47.562,1.917q39.352-3.813,62.313-28.959,22.977-25.164,27.354-61.25,7.641-70.515,8.729-141.854T255.035,416.284Z"/><path class="cls-22" d="M525.642,608.18q2.727-52.477.542-103.584-2.187-51.125,0-103.625-8.749,0-21.042.292-12.3.273-24.062.812-11.749.548-21.875,1.105-10.11.546-13.917-.021-4.937,6.563-10.125,20.791-5.187,14.211-9.291,28.709t-7.667,25.416Q414.657,489,413.017,488.45a4.709,4.709,0,0,1-3.27-1.645q-4.376-6.562-8.48-18.042t-8.479-24.042q-4.374-12.577-9.291-23.791t-9.834-16.667h-.541q-9.314.548-19.146.271t-19.688-.542q-9.836-.266-19.125.271a69.875,69.875,0,0,0-16.4,2.729q-.562,74.359-.833,130.125t-.542,96.208q-.273,40.461-.27,67.792t.27,44.021q.267,16.673.813,24.875a80.9,80.9,0,0,0,1.1,10.375q.538,1.648,1.646,1.646,17.477,0,38.25.541a213.033,213.033,0,0,0,38.271-2.187q-3.273-50.827-4.646-103.313A937.349,937.349,0,0,1,375.851,573.2s.63,1.823,1.9,5.459,2.823,8.2,4.645,13.666,4.021,11.49,6.563,18.042,5.01,12.75,7.375,18.583a98.076,98.076,0,0,0,7.125,14.5q3.563,5.735,6.292,5.73,2.187,0,6.562-10.375,4.375-10.39,9.292-24.063t9.833-26.5q4.914-12.852,8.75-18.875,2.727,22.961,4.083,50.292,1.376,27.336,1.646,55.771.289,28.422.563,55.77t1.354,50.834q6.563,0,15.583-.271t18.854-.271h19.688A138.923,138.923,0,0,1,524,782.575Z"/><path class="cls-22" d="M914.363,416.284q-6.562-3.828-16.958-4.917a141.816,141.816,0,0,0-21.875-.542q-11.484.548-22.687,1.917t-18.313,1.9q-1.648,63.421-1.917,131.208t-3,133.417q-2.735,12.563-12.02,19.667a35.74,35.74,0,0,1-20.23,7.666,36.987,36.987,0,0,1-21.062-5.458q-10.11-6.015-13.938-19.146a2136.21,2136.21,0,0,1-4.916-268.437v-.542a103.264,103.264,0,0,0-18.042-3q-9.836-.828-20.229-.833-10.375,0-20.5.541t-18.313.542h-.541l.541.562Q681.441,483,679.8,556.242t-1.625,145.417q1.078,25.172,14.479,42.937a100.628,100.628,0,0,0,33.354,28.417,143.652,143.652,0,0,0,44.563,14.75,182.939,182.939,0,0,0,47.562,1.917q39.352-3.813,62.313-28.959,22.976-25.164,27.354-61.25,7.641-70.515,8.729-141.854T914.363,416.284Z"/><path class="cls-22" d="M1165.846,784.763q9.289,0,13.1-1.1a38.117,38.117,0,0,0,4.938-1.625V771.1q0-10.937-.292-21.854-.273-10.938-.271-21.875,0-15.312.271-30.062.289-14.766.292-30.625v-47q0-23.515-.563-46.48V397.159a178.628,178.628,0,0,0-36.083-3.292,225.6,225.6,0,0,0-39.354,3.292q-.548,13.671-.833,25.416t-.271,23.23q0,19.688.812,38.562.828,18.859.834,40.708a172.151,172.151,0,0,1-1.105,19.146q-1.086,9.837-2.708,10.938-.562,0-3.854-6.292-3.273-6.289-7.917-15.312t-10.125-20.23q-5.46-11.2-10.375-21.312t-8.75-17.771q-3.811-7.664-4.916-10.4-4.923-11.476-8.48-18.854t-6.562-13.4q-3-6.015-6.292-12.583-3.273-6.562-7.083-16.4,0-1.079-5.75-2.167-5.734-1.1-13.4-1.916t-15.312-1.1q-7.648-.266-10.917-.271-6.562,0-12.854.541a105.77,105.77,0,0,0-11.75,1.646q-2.751,34.984-3.854,71.9-1.086,36.9-1.084,74.6,0,51.4.813,98.417.828,47.023.833,98.958v38.271a215.881,215.881,0,0,1,25.979,1.625,217.723,217.723,0,0,0,26.5,1.646q6.016,0,12.021-.542a69.734,69.734,0,0,0,12.042-2.187q-.548-9.289-.542-21.042V736.659q0-22.953.271-47.563t.812-44.833q.563-20.226,1.375-33.354t1.355-13.125q1.1,0,3.02,5.208,1.914,5.187,4.105,11.208l5.458,16.4q12.577,34.985,30.333,72.979t35.813,78.459q10.936,0,25.146,1.354Q1154.906,784.763,1165.846,784.763Z"/><path class="cls-22" d="M1459.419,522.888q7.641-41-6.562-67.792a94.245,94.245,0,0,0-40.459-40.458,162.222,162.222,0,0,0-28.708-9.833,167.733,167.733,0,0,0-31.708-4.646,187.546,187.546,0,0,0-31.98,1.1,108.069,108.069,0,0,0-28.958,7.375,112.833,112.833,0,0,0-44.562,33.354,123.145,123.145,0,0,0-24.875,49.75q-6.562,27.336.812,56.313,7.375,28.961,32.542,53.02a91.5,91.5,0,0,0,16.937,11.48,73.938,73.938,0,0,0,20.229,7.1q11.477,2.187,24.605,4.646a110.835,110.835,0,0,1,24.333,7.4,65.288,65.288,0,0,1,19.4,12.855q8.2,7.922,9.854,21.02,3.265,19.149-7.4,28.438a38.11,38.11,0,0,1-25.146,9.562,46.155,46.155,0,0,1-27.333-8.458q-12.86-8.749-13.938-26.25-18.585.548-41.562-.812a209.988,209.988,0,0,0-42.083,1.354V672.7q-1.648,26.235,9.291,46.73a106.277,106.277,0,0,0,29.521,34.729,144.32,144.32,0,0,0,42.354,22.146,162.453,162.453,0,0,0,47.854,8.458,133.947,133.947,0,0,0,33.084-3,112.617,112.617,0,0,0,30.062-11.208,95.528,95.528,0,0,0,24.875-19.667,91.922,91.922,0,0,0,17.5-29,128.8,128.8,0,0,0,9.563-29.792,127.067,127.067,0,0,0,2.187-30.875,109.892,109.892,0,0,0-5.75-29.791,91.669,91.669,0,0,0-14.75-27.084,131.809,131.809,0,0,0-40.729-38.812,129.182,129.182,0,0,0-53.854-18.584,80.24,80.24,0,0,1-21.333-6.02q-9.837-4.375-14.209-17.48-.546-3.828-.812-7.375a21.072,21.072,0,0,1,.812-7.4q2.188-15.314,14.479-20.771a40.62,40.62,0,0,1,25.438-2.729,41.9,41.9,0,0,1,22.417,12.583q9.288,9.836,6.02,24.583a130.732,130.732,0,0,0,40.98,4.646,309.836,309.836,0,0,0,41.02-4.1Z"/><path class="cls-22" d="M1724.572,707.68q-37.171,1.109-72.167-.813t-71.062-1.917l-.563-.541q-1.086-13.125-1.916-32.813a169.013,169.013,0,0,1,1.916-35.541q2.751-2.188,10.4-2.73t17.208-.541q9.579,0,19.959-.271a80.451,80.451,0,0,0,18.6-2.458q-.562-20.227.521-38.813a181.658,181.658,0,0,0-1.625-37.187v-.542q-16.938-.538-33.9-.542-16.938,0-33.354-1.1l-.542-.542a85.285,85.285,0,0,1-1.917-31.437,219.361,219.361,0,0,0,1.375-32.521l.542-.562h1.646q18.039-1.626,36.083-1.625t36.084.27q18.039.274,35.812-.541a209.809,209.809,0,0,0,35.25-4.667V479.7q0-19.125,1.375-38.812a182.577,182.577,0,0,0-1.375-38.813q0-.538-10.937-1.083-10.923-.562-28.959-.562t-41.562.562q-23.5.548-48.646,1.083T1542.8,403.45q-24.874.813-46.208,1.9-2.735,47.024-3.292,93.5-.546,46.461,0,92.938.563,46.461,1.646,93.208,1.1,46.751,1.1,94.313a959.573,959.573,0,0,0,110.688,2.458q57.687-1.914,113.458-1.375a153.676,153.676,0,0,0,4.917-35.25q.563-18.875-.542-36.354Z"/><path class="cls-22" d="M2016.517,780.388a285.775,285.775,0,0,0-20.229-43.458q-12.024-21.039-25.146-41.271t-26.791-40.188q-13.673-19.953-25.146-40.187v-.542h2.729q26.25-1.641,43.458-14.75A98.263,98.263,0,0,0,1993,567.18q16.954-28.438,16.125-58.771a117.474,117.474,0,0,0-15.02-55.5q-14.211-25.141-39.917-42.084-25.687-16.953-57.938-18.6a359.981,359.981,0,0,0-76.541-.521q-36.625,3.813-67.25,8.188,1.079,7.11,1.9,27.062t1.375,48.125q.563,28.149,1.375,61.771t1.083,67.792q.29,34.171.292,66.146v56.583q0,24.609-.563,39.646-.546,15.024-1.625,15.021,2.727-.54,14.479,0t26.5.271q14.766-.274,29.813-1.355,15.039-1.1,24.333-4.937-.546-10.375-1.646-27.875t-1.916-36.9q-.813-19.414-.813-37.729a243.576,243.576,0,0,1,1.646-30.9l1.083,1.646a319.175,319.175,0,0,1,22.959,32.812q11.476,18.586,21.312,37.73,9.852,19.125,18.042,36.625,8.2,17.484,13.687,30.062h.542a389.925,389.925,0,0,0,48.1.271q23.515-1.375,42.646-1.375ZM1832.267,476.43A114.664,114.664,0,0,1,1870,467.95q18.579-.811,30.625,10.105a32.822,32.822,0,0,1,10.917,16.145,47.949,47.949,0,0,1,2.188,20.23,40.284,40.284,0,0,1-6.834,18.583,24.791,24.791,0,0,1-16.125,10.646,138.473,138.473,0,0,1-27.9,1.646q-14.75-.54-27.312-1.646h-.542a99.578,99.578,0,0,1-1.375-14.75q-.273-8.751-.271-18.042t-.27-18.312Q1832.826,483.539,1832.267,476.43Z"/><path class="cls-22" d="M2270.732,707.68q-37.171,1.109-72.166-.813T2127.5,704.95l-.562-.541q-1.086-13.125-1.917-32.813a169.009,169.009,0,0,1,1.917-35.541q2.749-2.188,10.395-2.73t17.209-.541q9.577,0,19.958-.271a80.451,80.451,0,0,0,18.6-2.458q-.562-20.227.521-38.813A181.587,181.587,0,0,0,2192,554.055v-.542q-16.938-.538-33.9-.542-16.937,0-33.354-1.1l-.542-.542a85.285,85.285,0,0,1-1.916-31.437,219.5,219.5,0,0,0,1.375-32.521l.541-.562h1.646q18.039-1.626,36.084-1.625t36.083.27q18.039.274,35.812-.541a209.809,209.809,0,0,0,35.25-4.667V479.7q0-19.125,1.375-38.812a182.511,182.511,0,0,0-1.375-38.813q0-.538-10.937-1.083-10.921-.562-28.958-.562t-41.563.562q-23.5.548-48.646,1.083t-50.021,1.375q-24.874.813-46.208,1.9-2.734,47.024-3.292,93.5-.546,46.461,0,92.938.563,46.461,1.646,93.208,1.1,46.751,1.1,94.313a959.573,959.573,0,0,0,110.688,2.458q57.687-1.914,113.458-1.375a153.676,153.676,0,0,0,4.917-35.25q.563-18.875-.542-36.354Z"/><path class="cls-23" d="M177.43,1283.738q7.164,0,10.1-.855a29.8,29.8,0,0,0,3.812-1.25V1273.2q0-8.437-.229-16.854-.212-8.437-.208-16.875,0-11.812.208-23.188.227-11.39.229-23.625V1156.4q0-18.141-.437-35.854V984.758a137.775,137.775,0,0,0-27.834-2.541,173.946,173.946,0,0,0-30.354,2.541q-.422,10.548-.646,19.605t-.208,17.916q0,15.188.625,29.75.64,14.547.646,31.4a132.865,132.865,0,0,1-.854,14.771q-.837,7.586-2.084,8.437-.436,0-2.979-4.854-2.523-4.851-6.1-11.812t-7.813-15.6q-4.21-8.641-8-16.438-3.8-7.812-6.75-13.708-2.937-5.915-3.791-8.021-3.8-8.851-6.542-14.542t-5.062-10.333q-2.313-4.641-4.855-9.708-2.523-5.062-5.458-12.646,0-.828-4.437-1.667-4.422-.852-10.334-1.479t-11.812-.854q-5.9-.2-8.417-.209-5.062,0-9.917.417a80.9,80.9,0,0,0-9.062,1.271q-2.125,26.983-2.979,55.458-.837,28.461-.834,57.542,0,39.648.625,75.917.64,36.273.646,76.333v29.521a166.843,166.843,0,0,1,20.042,1.25,167.867,167.867,0,0,0,20.437,1.271q4.641,0,9.271-.417a53.858,53.858,0,0,0,9.292-1.688q-.421-7.164-.417-16.229v-18.771q0-17.7.209-36.687t.625-34.583q.436-15.6,1.062-25.73t1.042-10.125c.567,0,1.343,1.344,2.333,4.021s2.042,5.552,3.167,8.646l4.208,12.646q9.7,26.985,23.4,56.292t27.625,60.52q8.438,0,19.4,1.042Q168.989,1283.737,177.43,1283.738Z"/><path class="cls-23" d="M361.3,1133.613q-1.687-7.164-4.646-19.4t-6.333-26.979q-3.375-14.766-6.958-30.792t-6.75-30.146q-3.148-14.14-5.9-25.312t-4-16.667q-13.923,1.273-22.563,1.479t-14.125.208h-8.854a43.243,43.243,0,0,0-6.333.438q-10.125,33.733-18.563,67.9-8.421,34.147-15.6,65.771T228.234,1179.8q-5.274,28.047-9.063,49.542t-5.917,35q-2.109,13.5-2.937,16.458a1.179,1.179,0,0,0,.833.417q28.688-.414,42.167.416,13.5.829,16.875,0a.875.875,0,0,0,.646-.208.852.852,0,0,1,.625-.208,66.693,66.693,0,0,0,5.9-16.438q2.124-9.288,4.02-19.187,1.891-9.915,3.792-18.979a80.319,80.319,0,0,1,4.854-15.834q4.626,0,7.375-.208c1.834-.135,3.521-.208,5.063-.208h5.271a59.314,59.314,0,0,1,8.437.854,103.614,103.614,0,0,1,5.458,15.166q2.539,8.861,4.855,18.563t4.645,18.979a151.706,151.706,0,0,0,4.855,16.021h.416a165.894,165.894,0,0,0,28.667,3.583,118.1,118.1,0,0,0,27.854-1.9v-.416Zm-43.021,27.416q-8.024,0-16.041.209-8,.21-15.167-.209,2.953-21.516,5.271-40.062,2.311-18.562,4.208-30.792,1.914-12.226,4.229-16.229t4.625,3.167q2.328,7.171,5.5,27.416T318.275,1161.029Z"/><path class="cls-23" d="M473.047,1053.071a18.328,18.328,0,0,1,9.479-4.646q6.126-1.266,11.6-2.1,12.226-.414,17.916,5.062a28.491,28.491,0,0,1,7.792,14.125,86.058,86.058,0,0,1,2.333,18.771,133.214,133.214,0,0,0,1.479,18.125,279.37,279.37,0,0,0,30.98,4.021,108.378,108.378,0,0,0,30.583-2.333,89.738,89.738,0,0,0,5.062-37.938,94.139,94.139,0,0,0-9.708-34.375,96.24,96.24,0,0,0-21.5-28.041A112.461,112.461,0,0,0,528.9,984.133a103.911,103.911,0,0,0-35.625-8.645,101.3,101.3,0,0,0-38.375,5.041,97.862,97.862,0,0,0-11.375,4.021,50.533,50.533,0,0,0-10.125,5.688,73.213,73.213,0,0,0-13.708,16.458,102.864,102.864,0,0,0-9.479,20.229,76.764,76.764,0,0,0-4.021,13.708,46.633,46.633,0,0,0-.625,14.542q-.422,34.171-.625,60.1t0,46.375q.2,20.462.625,36.917.414,16.437,1.271,31.6,1.688,17.735,11.167,29.542a65.265,65.265,0,0,0,23.416,18.333,96.633,96.633,0,0,0,29.938,8.438,122.32,122.32,0,0,0,31.208-.209q23.187-.436,41.521-11.6a92.66,92.66,0,0,0,29.729-28.458,97.064,97.064,0,0,0,14.771-39,92.944,92.944,0,0,0-3.792-43.667,61.336,61.336,0,0,0-13.291-2.1q-7.375-.414-14.98-.417-7.585,0-14.958.417a67.8,67.8,0,0,1-13.292-.417,83.456,83.456,0,0,0-1.479,21.292,41.023,41.023,0,0,1-4,20.458A24.582,24.582,0,0,1,510.36,1214.8a35.025,35.025,0,0,1-17.5,2.729,25.952,25.952,0,0,1-17.5-14.958,76.232,76.232,0,0,1-6.542-23.833q-1.249-14.766-1.25-34.792t.417-38.583q.414-18.562,1.041-32.042.642-13.5,1.48-14.771a24.034,24.034,0,0,0,1.041-2.75A6.9,6.9,0,0,1,473.047,1053.071Z"/><path class="cls-23" d="M783.842,983.9q-6.336-.414-14.146-.625a152.31,152.31,0,0,0-15.813.417q-8,.625-15.375,1.9a86.653,86.653,0,0,0-12.437,2.958q1.266,30.36,1.042,55.667t-2.73,54.4h-.416q-10.548.835-22.771,1.895a70.679,70.679,0,0,1-22.792-1.479h-.416a294.267,294.267,0,0,1-5.063-54.4,437.382,437.382,0,0,0-3.792-56.5,45.773,45.773,0,0,0-12.645-1.687q-6.75,0-13.709.417t-13.916.854a51.408,51.408,0,0,1-13.292-.854h-1.25v.416q-.438,21.5-.646,48.292-.211,26.774.208,55.667.438,28.875,1.063,57.562t1.458,54.188q.852,25.522,1.917,45.979,1.062,20.438,1.9,32.25,3.789-2.1,11.166-1.688T647.2,1280.8q8.438.835,16.875.833t13.5-2.958a195.688,195.688,0,0,0,2.312-27.187q.2-13.7-.208-28.042t-.625-28.688q-.211-14.328,1.042-29.1a104.376,104.376,0,0,1,24.458-2.937,144.545,144.545,0,0,1,24.479,2.1l.417.417q1.688,13.5,2.1,28.27.414,14.751.625,29.521.2,14.751.833,29.729a269.588,269.588,0,0,0,2.75,28.875h.438q5.063-.414,12.437-.416H763.8q7.812,0,16.021-.417a130.775,130.775,0,0,0,15.417-1.687Z"/><path class="cls-23" d="M994.275,983.9q-6.336-.414-14.146-.625a152.284,152.284,0,0,0-15.812.417q-8,.625-15.375,1.9A86.637,86.637,0,0,0,936.5,988.55q1.266,30.36,1.042,55.667t-2.729,54.4H934.4q-10.546.835-22.771,1.895a70.679,70.679,0,0,1-22.792-1.479h-.416a294.267,294.267,0,0,1-5.063-54.4,437.377,437.377,0,0,0-3.791-56.5,45.786,45.786,0,0,0-12.646-1.687q-6.75,0-13.709.417t-13.916.854A51.408,51.408,0,0,1,826,986.863h-1.25v.416q-.438,21.5-.646,48.292-.21,26.774.209,55.667.436,28.875,1.062,57.562t1.458,54.188q.852,25.522,1.917,45.979,1.062,20.438,1.9,32.25,3.789-2.1,11.167-1.688t15.812,1.271q8.438.835,16.875.833t13.5-2.958a195.842,195.842,0,0,0,2.313-27.187q.2-13.7-.209-28.042t-.625-28.688q-.21-14.328,1.042-29.1a104.376,104.376,0,0,1,24.458-2.937,144.545,144.545,0,0,1,24.479,2.1l.417.417q1.688,13.5,2.1,28.27.414,14.751.625,29.521.2,14.751.834,29.729a269.33,269.33,0,0,0,2.75,28.875h.437q5.063-.414,12.438-.416h15.166q7.814,0,16.021-.417a130.751,130.751,0,0,0,15.417-1.687Z"/><path class="cls-23" d="M1170.979,1133.613q-1.687-7.164-4.646-19.4T1160,1087.238q-3.375-14.766-6.958-30.792t-6.75-30.146q-3.148-14.14-5.9-25.312t-4-16.667q-13.923,1.273-22.563,1.479t-14.125.208h-8.854a43.243,43.243,0,0,0-6.333.438q-10.125,33.733-18.563,67.9-8.421,34.147-15.6,65.771t-12.437,59.687q-5.274,28.047-9.063,49.542t-5.917,35q-2.109,13.5-2.937,16.458a1.179,1.179,0,0,0,.833.417q28.688-.414,42.167.416,13.5.829,16.875,0a.875.875,0,0,0,.646-.208.852.852,0,0,1,.625-.208,66.693,66.693,0,0,0,5.9-16.438q2.124-9.288,4.02-19.187,1.892-9.915,3.792-18.979a80.319,80.319,0,0,1,4.854-15.834q4.626,0,7.375-.208c1.834-.135,3.521-.208,5.063-.208h5.271a59.314,59.314,0,0,1,8.437.854,103.614,103.614,0,0,1,5.458,15.166q2.54,8.861,4.855,18.563t4.645,18.979a151.706,151.706,0,0,0,4.855,16.021h.416a165.894,165.894,0,0,0,28.667,3.583,118.1,118.1,0,0,0,27.854-1.9v-.416Zm-43.021,27.416q-8.024,0-16.041.209-8,.21-15.167-.209,2.954-21.516,5.271-40.062,2.312-18.562,4.208-30.792,1.914-12.226,4.229-16.229t4.625,3.167q2.328,7.171,5.5,27.416T1127.958,1161.029Z"/><path class="cls-23" d="M1394.064,1243.258a44.653,44.653,0,0,1-.23-7.791q.228-4.439.646-8.646.414-4.641.417-9.292a95.1,95.1,0,0,1-12.021.209q-8.647-.2-19.833-.625t-23.6-1.042q-12.438-.64-23.4-1.063t-19.188-.625q-8.234-.226-11.187.625v-.416q.437-27,.208-55.875-.21-28.892-.625-58t-.625-57.979q-.21-28.892.625-56.292a59.554,59.554,0,0,0-15.6-3.792,152.758,152.758,0,0,0-19.813-1.271,159.641,159.641,0,0,0-18.979,1.063q-8.859,1.047-13.083,2.729.438,29.523.854,53.771t.833,45.75q.438,21.5.438,42.167t-.229,42.812q-.211,22.125-1.063,47.646-.836,25.524-2.083,57.146v7.583q51.015.852,81.583.854t48.084-.437q17.5-.422,24.875-.834a86.2,86.2,0,0,1,12.02,0q4.641,0,7.167-.208t3.583-3.792q1.063-3.578,1.063-11.375T1394.064,1243.258Z"/><path class="cls-23" d="M1577.93,988.55a805.585,805.585,0,0,0-89.208-4.437q-45.75.21-88.771.645c0,.282.068.417.208.417s.23.141.23.417q-.859,10.125-.855,21.1,0,10.961.209,20.437t.833,16.23q.64,6.75,1.5,8.437,2.515.86,8.833.854t13.917.209q7.6.21,15.188.854a34.879,34.879,0,0,1,12.666,3.146l.417.416q2.515,59.048,3.146,100.792t.437,68.542q-.21,26.774-.646,40.27t.021,15.167a101.207,101.207,0,0,1,16.438-1.25h17.916q9.078,0,18.146-.208a121.388,121.388,0,0,0,16.646-1.479v-.855q-.836-45.953-1.271-79.895t-.833-58.209q-.421-24.249-.625-39.646t-.208-24.875q0-9.5.208-13.916a47.684,47.684,0,0,1,.625-6.542.85.85,0,0,1,.208-.625.887.887,0,0,0,.209-.646h1.27q19.813-.828,31.625-1.25a83.337,83.337,0,0,1,19.834,1.25,265.939,265.939,0,0,0,2.312-33.291Q1578.759,1002.472,1577.93,988.55Z"/><path class="cls-23" d="M1666.06,985.175q-18.984.422-28.9-.208t-17.5-1.063q-2.937,0-9.062-.625-6.11-.64-8.229-.208v.833a643.716,643.716,0,0,0-3.584,72.334q.2,36.9,1.271,74.645t1.479,76.105q.414,38.374-2.541,76.333,4.226-1.273,15.6-.646t23.833,1.063q12.438.414,23.188-.209,10.765-.624,14.125-4-2.111-35.852-2.521-72.541t.208-73.584q.641-36.891,1.688-73.583t1.062-72.958v-1.688Z"/><path class="cls-23" d="M1794.684,1134.883c-.573.282-.854.417-.854.417a.368.368,0,0,0-.417.417v.437a117,117,0,0,1,.854,12.646q0,5.063-.229,9.917-.21,4.836,0,9.9.227,5.063,1.063,11.812a20.433,20.433,0,0,0,6.1,1.063q4.016.21,8.854,0,4.851-.226,9.292-.438a35.4,35.4,0,0,1,6.958.208q1.266.438,1.479,3.813a70.309,70.309,0,0,1,0,7.583,76.358,76.358,0,0,1-.854,8.229q-.625,4-1.042,5.688a22.614,22.614,0,0,1-5.062,9.479,25.4,25.4,0,0,1-8.021,5.708,81.372,81.372,0,0,1-12.854,3.375,43.037,43.037,0,0,1-13.292.417,27.98,27.98,0,0,1-9.687-3.792,29.8,29.8,0,0,1-10.563-17.291,150.971,150.971,0,0,1-3.354-20.25q-1.274-15.6-1.708-32.9t.416-33.521q.852-16.227,2.75-30.562a169.6,169.6,0,0,1,4.855-24.48,52.458,52.458,0,0,1,2.312-6.958,15.863,15.863,0,0,1,2.333-4.417,16.19,16.19,0,0,1,11.813-5.062q6.75,0,13.917.417a16.228,16.228,0,0,1,10.958,4.02,47.393,47.393,0,0,1,8.229,9.271,54.512,54.512,0,0,1,5.9,11.4q2.313,6.11,3.583,10.313,6.329.858,10.959,1.27t9.062.417q4.437,0,8.854-.208,4.439-.2,10.771-.209,6.75-.414,9.688-.416t3.812-1.271l.417-2.521q2.953-25.726-4.646-44.5a69.136,69.136,0,0,0-22.771-30.146q-15.187-11.391-36.271-15.812a132.418,132.418,0,0,0-44.271-1.479,138.132,138.132,0,0,0-21.937,5.062,54.889,54.889,0,0,0-18.979,10.542,47.188,47.188,0,0,0-17.5,21.521,119.48,119.48,0,0,0-7.375,26.979q-2.109,13.483-2.959,27.625-.835,14.124-1.25,27.6-.421,15.609-.208,27.625t.833,22.771q.642,10.749,1.48,21.729.828,10.961,2.1,24.458.85,8.438,2.312,16.667,1.477,8.211,2.75,12.854,5.063,18.125,13.917,30.354t25.729,19.4a77.25,77.25,0,0,0,21.292,5.479,113.407,113.407,0,0,0,22.979.209,206.449,206.449,0,0,0,23.187-3.375q11.391-2.313,21.938-5.25a70.985,70.985,0,0,0,26.979-17.292q10.977-11.391,13.083-32.9a220.6,220.6,0,0,0,3.375-47.854q-.835-25.1-3.375-47.458l-.416-.417h-.854q-4.212,0-16.23-1.042-12.023-1.062-25.937-1.479-13.921-.438-26.354.208Q1800.163,1131.509,1794.684,1134.883Z"/><path class="cls-23" d="M2090.3,1224.279q-28.671.86-55.666-.625t-54.813-1.479l-.437-.417q-.837-10.125-1.48-25.312a130.469,130.469,0,0,1,1.48-27.417q2.124-1.687,8.02-2.1t13.271-.417q7.39,0,15.4-.208a61.993,61.993,0,0,0,14.354-1.9q-.436-15.6.4-29.937a140.061,140.061,0,0,0-1.25-28.688v-.416q-13.062-.414-26.146-.417-13.062,0-25.729-.854l-.417-.417a65.738,65.738,0,0,1-1.479-24.25,169.3,169.3,0,0,0,1.063-25.083l.416-.438h1.271q13.914-1.25,27.834-1.25t27.833.209q13.914.21,27.625-.417a161.749,161.749,0,0,0,27.187-3.6v-.417q0-14.749,1.063-29.937a140.572,140.572,0,0,0-1.063-29.938q0-.414-8.437-.833-8.422-.438-22.333-.438t-32.063.438q-18.125.422-37.521.833t-38.583,1.063q-19.188.624-35.646,1.458-2.109,36.273-2.542,72.125-.422,35.837,0,71.687.438,35.836,1.271,71.9.852,36.063.854,72.75a739.977,739.977,0,0,0,85.375,1.9q44.5-1.476,87.521-1.062a118.481,118.481,0,0,0,3.792-27.188q.438-14.562-.417-28.042Z"/><path class="cls-23" d="M2315.494,1280.363a220.83,220.83,0,0,0-15.6-33.521q-9.273-16.227-19.4-31.834t-20.667-31q-10.547-15.39-19.4-31v-.416h2.105q20.25-1.266,33.52-11.375a75.772,75.772,0,0,0,21.292-25.313q13.079-21.937,12.438-45.333a90.636,90.636,0,0,0-11.584-42.813,94.093,94.093,0,0,0-30.791-32.458,87.728,87.728,0,0,0-44.688-14.354,277.889,277.889,0,0,0-59.042-.4q-28.25,2.937-51.875,6.313.829,5.484,1.459,20.875t1.062,37.125q.438,21.711,1.063,47.645t.833,52.292q.226,26.36.229,51.021v43.646q0,18.984-.437,30.583-.421,11.586-1.25,11.583,2.1-.414,11.166,0t20.438.209q11.391-.212,23-1.042,11.6-.852,18.771-3.812-.421-8-1.271-21.5t-1.479-28.459q-.625-14.976-.625-29.1a187.65,187.65,0,0,1,1.271-23.833l.833,1.271a245.945,245.945,0,0,1,17.708,25.312q8.851,14.335,16.438,29.1,7.6,14.751,13.916,28.25t10.563,23.188h.417a301.609,301.609,0,0,0,37.1.208q18.141-1.062,32.9-1.062ZM2173.369,1045.9a88.4,88.4,0,0,1,29.1-6.541q14.328-.626,23.625,7.791a25.333,25.333,0,0,1,8.417,12.459,36.924,36.924,0,0,1,1.687,15.6,31.035,31.035,0,0,1-5.271,14.333,19.086,19.086,0,0,1-12.437,8.208,106.8,106.8,0,0,1-21.521,1.271q-11.374-.414-21.062-1.271h-.417a76.226,76.226,0,0,1-1.063-11.375q-.21-6.75-.208-13.916t-.208-14.125Q2173.8,1051.388,2173.369,1045.9Z"/><path class="cls-23" d="M2639.527,498.471q8.063-43.1-6.9-71.25A99.017,99.017,0,0,0,2590.11,384.7a168.981,168.981,0,0,0-30.166-10.354,177.381,177.381,0,0,0-33.334-4.875,195.6,195.6,0,0,0-33.625,1.146,114.1,114.1,0,0,0-30.437,7.75,118.575,118.575,0,0,0-46.854,35.063,129.523,129.523,0,0,0-26.146,52.291q-6.9,28.736.854,59.188t34.208,55.75a96.334,96.334,0,0,0,17.813,12.062,78.027,78.027,0,0,0,21.271,7.479q12.062,2.3,25.854,4.875a116.414,116.414,0,0,1,25.562,7.771,68.711,68.711,0,0,1,20.4,13.5q8.625,8.337,10.354,22.125,3.453,20.111-7.75,29.875a40.157,40.157,0,0,1-26.437,10.063,48.554,48.554,0,0,1-28.729-8.917q-13.5-9.187-14.667-27.583-19.524.585-43.667-.854a220.711,220.711,0,0,0-44.25,1.437v3.438q-1.734,27.585,9.771,49.145a111.611,111.611,0,0,0,31.021,36.48,151.566,151.566,0,0,0,44.542,23.27,170.674,170.674,0,0,0,50.291,8.917,139.9,139.9,0,0,0,34.75-3.146,118.36,118.36,0,0,0,31.6-11.791,100.457,100.457,0,0,0,26.167-20.688,96.475,96.475,0,0,0,18.4-30.458,135.581,135.581,0,0,0,10.042-31.313,132.741,132.741,0,0,0,2.291-32.479,116.424,116.424,0,0,0-6.021-31.312,96.184,96.184,0,0,0-15.52-28.459,138.516,138.516,0,0,0-42.813-40.791,135.714,135.714,0,0,0-56.6-19.542,84.662,84.662,0,0,1-22.417-6.313q-10.335-4.6-14.937-18.4-.562-4.016-.854-7.75a21.871,21.871,0,0,1,.854-7.771q2.312-16.078,15.229-21.834a42.781,42.781,0,0,1,26.729-2.875,44.094,44.094,0,0,1,23.563,13.23q9.765,10.335,6.312,25.854a137.662,137.662,0,0,0,43.1,4.875,325.741,325.741,0,0,0,43.1-4.313Z"/><path class="cls-23" d="M2774.581,459.388q4.578-4.578,12.917-6.313t15.812-2.875q16.664-.562,24.417,6.917a38.609,38.609,0,0,1,10.625,19.25,118.421,118.421,0,0,1,3.166,25.563,183.128,183.128,0,0,0,2.021,24.708,380.807,380.807,0,0,0,42.229,5.458,147.1,147.1,0,0,0,41.667-3.166q9.188-26.437,6.9-51.709a128.314,128.314,0,0,0-13.208-46.833,131.438,131.438,0,0,0-29.313-38.229,153.182,153.182,0,0,0-41.1-26.709,142.264,142.264,0,0,0-48.563-11.791,137.624,137.624,0,0,0-52.27,6.9,134.134,134.134,0,0,0-15.542,5.458,70.03,70.03,0,0,0-13.771,7.75,100.508,100.508,0,0,0-18.687,22.417,140.4,140.4,0,0,0-12.917,27.583,106.06,106.06,0,0,0-5.479,18.687,63.111,63.111,0,0,0-.854,19.813q-.562,46.563-.855,81.917-.3,35.336,0,63.208t.855,50.271q.577,22.422,1.729,43.1,2.289,24.125,15.229,40.229a88.9,88.9,0,0,0,31.9,25,131.911,131.911,0,0,0,40.791,11.479,166.386,166.386,0,0,0,42.542-.291q31.6-.562,56.6-15.792a126.439,126.439,0,0,0,40.5-38.792,132.178,132.178,0,0,0,20.1-53.146,126.594,126.594,0,0,0-5.166-59.5,83.249,83.249,0,0,0-18.1-2.854q-10.047-.577-20.4-.583t-20.4.583a92.333,92.333,0,0,1-18.1-.583,113.473,113.473,0,0,0-2.021,29.021,55.958,55.958,0,0,1-5.438,27.875,33.631,33.631,0,0,1-16.958,16.375,47.986,47.986,0,0,1-23.854,3.729,35.333,35.333,0,0,1-23.854-20.4,104.168,104.168,0,0,1-8.9-32.458q-1.734-20.125-1.729-47.417t.562-52.583q.579-25.29,1.438-43.667.874-18.39,2.021-20.125a30.1,30.1,0,0,0,1.437-3.729A9.929,9.929,0,0,1,2774.581,459.388Z"/><path class="cls-23" d="M3209.588,365.159q-8.625-.579-19.25-.854a204.941,204.941,0,0,0-21.541.562q-10.921.859-20.979,2.583a118.851,118.851,0,0,0-16.959,4.021q1.727,41.376,1.438,75.854t-3.729,74.146h-.584q-14.36,1.149-31.021,2.584a96.6,96.6,0,0,1-31.041-2.021h-.563a401.089,401.089,0,0,1-6.9-74.125,593.563,593.563,0,0,0-5.187-77,62.191,62.191,0,0,0-17.25-2.313q-9.187,0-18.667.584-9.485.563-18.958,1.145a69.689,69.689,0,0,1-18.1-1.145h-1.729v.562q-.562,29.313-.855,65.813-.3,36.484.271,75.854t1.438,78.437q.875,39.087,2.021,73.854,1.14,34.75,2.583,62.625t2.6,43.959q5.164-2.875,15.208-2.292,10.063.587,21.563,1.729t22.979,1.146q11.5,0,18.4-4.021a264.8,264.8,0,0,0,3.146-37.062q.288-18.688-.292-38.209-.562-19.539-.854-39.083-.273-19.539,1.437-39.667a141.847,141.847,0,0,1,33.334-4.02,195.758,195.758,0,0,1,33.333,2.875l.583.583q2.289,18.4,2.855,38.5t.875,40.229q.288,20.109,1.145,40.521a367.692,367.692,0,0,0,3.75,39.354h.563q6.891-.577,16.958-.583H3182.3q10.625,0,21.833-.563a170.509,170.509,0,0,0,20.979-2.312Z"/><path class="cls-23" d="M3523.354,386.409q-6.9-4.015-17.812-5.167a151.649,151.649,0,0,0-23-.562q-12.063.563-23.855,2-11.773,1.437-19.229,2.02-1.734,66.649-2.021,137.917-.3,71.25-3.166,140.208-2.876,13.235-12.646,20.709a37.444,37.444,0,0,1-21.25,8.041,38.85,38.85,0,0,1-22.125-5.75Q3367.626,679.5,3363.6,665.7a2247.159,2247.159,0,0,1-5.187-282.166v-.563a107.521,107.521,0,0,0-18.959-3.166q-10.335-.852-21.271-.855t-21.541.584q-10.626.563-19.25.562h-.584l.584.563q1.14,75.875-.584,152.875T3275.1,686.388q1.14,26.438,15.208,45.125a105.656,105.656,0,0,0,35.063,29.875,151.472,151.472,0,0,0,46.833,15.521,191.924,191.924,0,0,0,50,2q41.376-4.023,65.5-30.459,24.141-26.437,28.75-64.354,8.04-74.14,9.188-149.125Q3526.786,459.971,3523.354,386.409Z"/><path class="cls-23" d="M3818.151,718.575a61.207,61.207,0,0,1-.291-10.625q.288-6.039.854-11.791.578-6.313.583-12.646a126.761,126.761,0,0,1-16.4.292q-11.773-.289-27-.855t-32.187-1.437q-16.938-.875-31.875-1.438t-26.146-.854q-11.211-.288-15.229.854v-.583q.563-36.765.271-76.125-.274-39.375-.855-79.021-.562-39.663-.854-79.021-.3-39.375.854-76.729-8.046-3.437-21.27-5.166a208.181,208.181,0,0,0-27-1.73,218.949,218.949,0,0,0-25.855,1.438q-12.062,1.437-17.812,3.729.563,40.234,1.146,73.271t1.146,62.354q.577,29.313.583,57.479,0,28.149-.292,58.334t-1.437,64.937q-1.149,34.751-2.875,77.854V771.45q69.538,1.141,111.187,1.146,41.664,0,65.521-.583,23.851-.562,33.9-1.146a115.022,115.022,0,0,1,16.4,0q6.312,0,9.75-.292,3.453-.288,4.9-5.166t1.437-15.521Q3819.3,739.263,3818.151,718.575Z"/><path class="cls-23" d="M4098,692.721q-39.063,1.149-75.854-.854-36.774-2.016-74.709-2.021l-.562-.583q-1.149-13.789-2.021-34.479a177.33,177.33,0,0,1,2.021-37.354q2.876-2.289,10.917-2.855t18.1-.583q10.062,0,20.979-.292a84.6,84.6,0,0,0,19.521-2.583q-.562-21.265.583-40.812a191.215,191.215,0,0,0-1.729-39.084v-.562q-17.812-.579-35.625-.584t-35.063-1.145l-.562-.563a90.041,90.041,0,0,1-2.021-33.042,229.69,229.69,0,0,0,1.438-34.208l.583-.562h1.729q18.954-1.727,37.917-1.73t37.916.292q18.978.273,37.646-.583a220.247,220.247,0,0,0,37.084-4.875v-.584q0-20.1,1.437-40.791a193.2,193.2,0,0,0-1.437-40.813q0-.562-11.5-1.146t-30.459-.583q-18.96,0-43.666.583t-51.146,1.167q-26.437.563-52.584,1.417t-48.562,2.021q-2.875,49.422-3.458,98.27-.562,48.837,0,97.688.577,48.836,1.729,97.979,1.14,49.125,1.146,99.125a1010.039,1010.039,0,0,0,116.375,2.6q60.624-2.014,119.25-1.458a162.683,162.683,0,0,0,5.166-37.063q.579-19.827-.583-38.208Z"/></svg>